<svg width="100" height="120" viewBox="0 0 181 117" fill="none" xmlns="http://www.w3.org/2000/svg">
<g clip-path="url(#clip0_48_117)">
<path fill-rule="evenodd" clip-rule="evenodd" d="M60.5457 59.3468L61.1416 55.9666C61.1416 55.9666 56.5526 54.4817 52.8177 57.2355V70.7574H56.7839V59.7714C58.3644 58.5025 60.5457 59.3468 60.5457 59.3468Z" fill="#03435F"/>
<mask id="mask0_48_117" style="mask-type:alpha" maskUnits="userSpaceOnUse" x="52" y="55" width="10" height="16">
<path d="M52.8177 57.2352C54.6147 55.9106 56.6096 55.5667 58.1958 55.5669C59.9063 55.5669 61.1419 55.9666 61.1419 55.9666L60.5457 59.3468C60.5457 59.3468 58.3644 58.5026 56.7839 59.7712V70.7572H52.8177V57.2352Z" fill="white"/>
</mask>
<g mask="url(#mask0_48_117)">
<path fill-rule="evenodd" clip-rule="evenodd" d="M-188.616 112.667L369.923 112.667V-675.65H-188.616L-188.616 112.667Z" fill="#03435F"/>
</g>
<mask id="mask1_48_117" style="mask-type:alpha" maskUnits="userSpaceOnUse" x="52" y="55" width="10" height="16">
<path d="M52.8177 57.2352C54.6147 55.9106 56.6093 55.5669 58.1958 55.5669C59.9063 55.5669 61.1419 55.9666 61.1419 55.9666L60.5457 59.3468C60.5457 59.3468 58.3644 58.5026 56.7839 59.7712V70.7572H52.8177V57.2352Z" fill="white"/>
</mask>
<g mask="url(#mask1_48_117)">
<path fill-rule="evenodd" clip-rule="evenodd" d="M46.1685 77.382H67.7911V48.9424H46.1685V77.382Z" fill="#03435F"/>
</g>
<path fill-rule="evenodd" clip-rule="evenodd" d="M26.3525 52.1115L30.3169 51.3674V55.7651H34.2398V59.282H30.3169V64.5269C30.3169 65.4203 30.4619 66.1296 30.7584 66.6541C31.0515 67.1867 31.6394 67.4506 32.5223 67.4506C32.954 67.4506 33.3875 67.4093 33.8448 67.3218C34.2892 67.2328 34.7036 67.1185 35.0765 66.9689L35.6374 70.2632C35.1576 70.4683 34.6272 70.6463 34.0424 70.7972C33.4558 70.9466 32.7356 71.0245 31.8847 71.0245C30.8029 71.0245 29.909 70.8674 29.1981 70.5557C28.4908 70.2441 27.9221 69.8067 27.4982 69.2487C27.0743 68.6955 26.7762 68.0167 26.6089 67.2217C26.4385 66.4284 26.3525 65.5522 26.3525 64.5857V52.1115Z" fill="#03435F"/>
<mask id="mask2_48_117" style="mask-type:alpha" maskUnits="userSpaceOnUse" x="26" y="51" width="10" height="21">
<path d="M26.3527 52.1115L30.317 51.3674V55.7651H34.2399V59.2821H30.317V64.5269C30.317 65.4206 30.462 66.1296 30.7583 66.6541C31.0514 67.1869 31.6393 67.4506 32.5222 67.4506C32.9539 67.4506 33.3871 67.4093 33.8447 67.3218C34.2891 67.2328 34.7037 67.1185 35.0767 66.9692L35.6373 70.2632C35.1577 70.4685 34.6271 70.6466 34.0423 70.7975C33.4557 70.9469 32.7355 71.0245 31.8846 71.0245C30.8026 71.0245 29.9089 70.8674 29.1983 70.5557C28.4907 70.2441 27.9218 69.8067 27.4981 69.2489C27.0742 68.6955 26.7763 68.0167 26.609 67.2217C26.4384 66.4284 26.3527 65.5524 26.3527 64.5857V52.1115Z" fill="white"/>
</mask>
<g mask="url(#mask2_48_117)">
<path fill-rule="evenodd" clip-rule="evenodd" d="M-188.616 112.667L369.922 112.667V-675.65H-188.616L-188.616 112.667Z" fill="#03435F"/>
<path fill-rule="evenodd" clip-rule="evenodd" d="M19.7031 77.6492H42.2864V44.7427H19.7031L19.7031 77.6492Z" fill="#03435F"/>
</g>
<path fill-rule="evenodd" clip-rule="evenodd" d="M67.0136 67.7292C67.7387 67.7292 68.2517 67.6495 68.5563 67.5001C68.8588 67.3492 69.0053 67.0535 69.0053 66.6211C69.0053 66.2792 68.8142 65.982 68.4221 65.7291C68.0303 65.4717 67.4406 65.1855 66.6409 64.8594C66.0209 64.613 65.4569 64.3589 64.9485 64.0965C64.4466 63.8294 64.0165 63.5178 63.6612 63.1472C63.3072 62.7786 63.0332 62.3363 62.8356 61.8213C62.638 61.3156 62.5442 60.7036 62.5442 59.9817C62.5442 58.5841 63.0332 57.476 64.0069 56.6635C64.9819 55.8544 66.3175 55.4411 68.0223 55.4411C68.8748 55.4411 69.6906 55.5221 70.4714 55.6859C71.2506 55.8448 71.8737 56.0262 72.3308 56.2089L71.6409 59.4998C71.1789 59.3298 70.677 59.1804 70.1368 59.0501C69.5966 58.9167 68.988 58.8465 68.3154 58.8465C67.0742 58.8465 66.4526 59.2186 66.4526 59.9547C66.4526 60.1247 66.4798 60.2759 66.534 60.4077C66.5881 60.5414 66.6935 60.6686 66.8497 60.7909C67.0136 60.9119 67.2272 61.0484 67.5043 61.1885C67.7799 61.3363 68.1305 61.4888 68.5563 61.6622C69.4213 62.0056 70.1399 62.3394 70.7073 62.6767C71.276 63.0136 71.7222 63.3684 72.0521 63.7623C72.3803 64.1473 72.6131 64.5735 72.7436 65.047C72.8744 65.5194 72.9427 66.0646 72.9427 66.6864C72.9427 68.1601 72.4233 69.2744 71.3892 70.0281C70.3502 70.7786 68.881 71.1569 66.9833 71.1569C65.7436 71.1569 64.7111 71.0472 63.8873 70.8168C63.0603 70.5926 62.4898 70.3988 62.1713 70.2492L62.8356 66.8182C63.5066 67.1012 64.2045 67.3205 64.9089 67.4862C65.6226 67.6482 66.3175 67.7292 67.0136 67.7292Z" fill="#03435F"/>
<mask id="mask3_48_117" style="mask-type:alpha" maskUnits="userSpaceOnUse" x="62" y="55" width="11" height="17">
<path d="M64.0068 56.6638C64.9821 55.8544 66.3173 55.4411 68.0222 55.4411C68.8749 55.4411 69.6907 55.5221 70.4715 55.6859C71.2505 55.8448 71.8736 56.026 72.3309 56.2089L71.641 59.4998C71.1788 59.3298 70.6771 59.1804 70.1367 59.0501C69.5967 58.9164 68.9879 58.8468 68.3156 58.8468C67.0741 58.8468 66.4528 59.2183 66.4528 59.9547C66.4528 60.1247 66.4797 60.2759 66.5338 60.4077C66.5882 60.5414 66.6936 60.6686 66.8498 60.7909C67.0135 60.9119 67.2274 61.0484 67.5045 61.1885C67.78 61.336 68.1304 61.489 68.5562 61.6622C69.4214 62.0056 70.14 62.3394 70.7072 62.6767C71.2761 63.0136 71.7223 63.3681 72.0523 63.7623C72.3804 64.1473 72.613 64.5733 72.7437 65.047C72.8745 65.5194 72.9426 66.0646 72.9426 66.6864C72.9426 68.1601 72.4231 69.2747 71.3893 70.0281C70.3503 70.7786 68.8812 71.1569 66.9834 71.1569C65.7437 71.1569 64.7112 71.0472 63.8874 70.8168C63.0602 70.5926 62.49 70.3988 62.1712 70.2492L62.8357 66.8182C63.5067 67.1015 64.2044 67.3205 64.9088 67.4862C65.6225 67.648 66.3173 67.7292 67.0135 67.7292C67.7386 67.7292 68.2518 67.6497 68.5562 67.5001C68.8589 67.3492 69.0055 67.0535 69.0055 66.6211C69.0055 66.2792 68.8143 65.982 68.4223 65.7291C68.0302 65.4717 67.4405 65.1855 66.6408 64.8594C66.0208 64.613 65.457 64.3589 64.9484 64.0965C64.4468 63.8294 64.0164 63.5178 63.6613 63.1472C63.3073 62.7783 63.0333 62.3363 62.8357 61.8213C62.6381 61.3154 62.5441 60.7036 62.5441 59.9817C62.5441 58.5844 63.0333 57.4762 64.0068 56.6638Z" fill="white"/>
</mask>
<g mask="url(#mask3_48_117)">
<path fill-rule="evenodd" clip-rule="evenodd" d="M-188.616 112.667L369.923 112.667V-675.65H-188.616L-188.616 112.667Z" fill="#03435F"/>
<path fill-rule="evenodd" clip-rule="evenodd" d="M55.522 77.7816H79.5922V48.8165H55.522V77.7816Z" fill="#03435F"/>
</g>
<path fill-rule="evenodd" clip-rule="evenodd" d="M85.1614 62.1941C84.8061 63.6315 84.4316 65.0624 84.0317 66.4773C83.6332 67.8971 83.2092 69.325 82.7713 70.7621H79.6849C79.3646 69.9672 79.0157 69.0228 78.6428 67.9273C78.2665 66.8272 77.8827 65.6331 77.4795 64.3343C77.0809 63.0399 76.6733 61.6696 76.2556 60.2196C75.8366 58.776 75.4302 57.3165 75.0415 55.8394H79.2195C79.3581 56.5182 79.5158 57.2641 79.6862 58.0668C79.8553 58.8712 80.0337 59.6997 80.2202 60.5519C80.4066 61.401 80.6058 62.2545 80.8096 63.1162C81.0152 63.978 81.2258 64.8031 81.4389 65.5967C81.6702 64.7652 81.8965 63.9161 82.1179 63.0463C82.3362 62.1753 82.5514 61.3197 82.7568 60.4789C82.9593 59.6393 83.1585 58.8238 83.34 58.0384C83.5249 57.2543 83.6891 56.5182 83.8341 55.8394H86.7038C86.8504 56.5182 87.0048 57.2543 87.1847 58.0384C87.3601 58.8238 87.5468 59.6393 87.7444 60.4789C87.9355 61.3197 88.1442 62.1753 88.353 63.0463C88.5679 63.9161 88.788 64.7652 89.0159 65.5967C89.2309 64.8031 89.4445 63.978 89.6595 63.1162C89.8747 62.2545 90.077 61.401 90.2618 60.5519C90.4468 59.6997 90.6252 58.8712 90.7974 58.0668C90.9678 57.2641 91.1224 56.5182 91.2641 55.8394H95.388C94.9961 57.3165 94.5929 58.776 94.1739 60.2196C93.7515 61.6696 93.3483 63.0399 92.9453 64.3343C92.5483 65.6331 92.1565 66.8272 91.7755 67.9273C91.3917 69.0228 91.0377 69.9672 90.7226 70.7621H87.6361C87.1896 69.325 86.7564 67.8971 86.3293 66.4773C85.9038 65.0624 85.5182 63.6315 85.1614 62.1941Z" fill="#03435F"/>
<mask id="mask4_48_117" style="mask-type:alpha" maskUnits="userSpaceOnUse" x="75" y="55" width="21" height="16">
<path d="M91.2642 55.8394H95.3881C94.9963 57.3165 94.593 58.776 94.1737 60.2193C93.7516 61.6696 93.3484 63.0401 92.9452 64.3343C92.5484 65.6331 92.1566 66.8272 91.7754 67.9273C91.3916 69.0228 91.0379 69.9669 90.7224 70.7621H87.636C87.1898 69.325 86.7565 67.8969 86.3295 66.4771C85.904 65.0624 85.5184 63.6315 85.1615 62.1941C84.8059 63.6315 84.4315 65.0624 84.0319 66.4771C83.6333 67.8969 83.2094 69.325 82.7712 70.7621H79.6848C79.3644 69.9669 79.0156 69.0228 78.6426 67.9273C78.2666 66.8272 77.8826 65.6331 77.4796 64.3343C77.081 63.0401 76.6732 61.6696 76.2557 60.2193C75.8367 58.776 75.4303 57.3165 75.0416 55.8394H79.2194C79.3582 56.5182 79.5159 57.2638 79.6863 58.0668C79.8554 58.8712 80.0336 59.6997 80.2203 60.5516C80.4065 61.4008 80.6059 62.2545 80.8097 63.1162C81.0153 63.978 81.2259 64.8031 81.439 65.5967C81.67 64.7652 81.8964 63.9158 82.1178 63.0463C82.3361 62.1753 82.5516 61.3197 82.7569 60.4789C82.9592 59.6391 83.1584 58.8235 83.3401 58.0384C83.5251 57.2543 83.6892 56.5182 83.834 55.8394H86.7039C86.8502 56.5182 87.0049 57.2543 87.1849 58.0384C87.3602 58.8235 87.5469 59.6391 87.7442 60.4789C87.9356 61.3197 88.1441 62.1753 88.3531 63.0463C88.568 63.9158 88.7882 64.7652 89.0158 65.5967C89.231 64.8031 89.4444 63.978 89.6596 63.1162C89.8748 62.2545 90.0771 61.4008 90.262 60.5516C90.4469 59.6997 90.6253 58.8712 90.7973 58.0668C90.9679 57.2638 91.1225 56.5182 91.2642 55.8394Z" fill="white"/>
</mask>
<g mask="url(#mask4_48_117)">
<path fill-rule="evenodd" clip-rule="evenodd" d="M-188.616 112.667L369.922 112.667V-675.65H-188.616L-188.616 112.667Z" fill="#03435F"/>
<path fill-rule="evenodd" clip-rule="evenodd" d="M68.3925 77.3867H102.037V49.2149H68.3925V77.3867Z" fill="#03435F"/>
</g>
<path fill-rule="evenodd" clip-rule="evenodd" d="M98.1903 70.7562H102.148V55.8367H98.1903V70.7562Z" fill="#03435F"/>
<mask id="mask5_48_117" style="mask-type:alpha" maskUnits="userSpaceOnUse" x="98" y="55" width="5" height="16">
<path d="M98.1903 70.7566V55.837H102.149V70.7566H98.1903Z" fill="white"/>
</mask>
<g mask="url(#mask5_48_117)">
<path fill-rule="evenodd" clip-rule="evenodd" d="M-188.616 112.667L369.922 112.667V-675.65H-188.616L-188.616 112.667Z" fill="#03435F"/>
<path fill-rule="evenodd" clip-rule="evenodd" d="M91.5408 77.3809H108.797V49.2121H91.5408V77.3809Z" fill="#03435F"/>
</g>
<path fill-rule="evenodd" clip-rule="evenodd" d="M105.297 52.116L109.258 51.3672V55.8442H113.178V59.3547H109.258V64.6046C109.258 65.4932 109.405 66.2089 109.696 66.7319C109.988 67.2613 110.579 67.5268 111.464 67.5268C111.892 67.5268 112.332 67.4886 112.781 67.4012C113.235 67.3152 113.647 67.193 114.021 67.0451L114.577 70.3363C114.097 70.5458 113.564 70.7241 112.982 70.8765C112.394 71.0259 111.682 71.1023 110.828 71.1023C109.744 71.1023 108.85 70.9467 108.141 70.6317C107.431 70.3249 106.863 69.891 106.44 69.328C106.016 68.7748 105.719 68.0926 105.549 67.3026C105.377 66.5061 105.297 65.6253 105.297 64.6632V52.116Z" fill="#03435F"/>
<mask id="mask6_48_117" style="mask-type:alpha" maskUnits="userSpaceOnUse" x="105" y="51" width="10" height="21">
<path d="M105.297 52.1161L109.258 51.3673V55.8443H113.178V59.3548H109.258V64.6047C109.258 65.4933 109.405 66.2088 109.697 66.732C109.988 67.2614 110.579 67.5267 111.464 67.5267C111.892 67.5267 112.332 67.4888 112.781 67.4013C113.235 67.3151 113.647 67.1931 114.021 67.0452L114.577 70.3361C114.098 70.5459 113.564 70.7242 112.982 70.8767C112.394 71.0261 111.682 71.1024 110.828 71.1024C109.744 71.1024 108.85 70.9468 108.141 70.6318C107.431 70.3248 106.863 69.8911 106.44 69.3284C106.016 68.7749 105.72 68.093 105.549 67.3027C105.377 66.5063 105.297 65.6252 105.297 64.6636V52.1161Z" fill="white"/>
</mask>
<g mask="url(#mask6_48_117)">
<path fill-rule="evenodd" clip-rule="evenodd" d="M-188.616 112.667L369.922 112.667V-675.65H-188.616L-188.616 112.667Z" fill="#03435F"/>
<path fill-rule="evenodd" clip-rule="evenodd" d="M98.6476 77.7269H121.227V44.7425H98.6476V77.7269Z" fill="#03435F"/>
</g>
<path fill-rule="evenodd" clip-rule="evenodd" d="M115.977 63.3043C115.977 62.2246 116.142 61.2072 116.47 60.2534C116.798 59.2962 117.271 58.4664 117.891 57.7556C118.512 57.045 119.265 56.4852 120.154 56.0672C121.038 55.6554 122.048 55.4423 123.183 55.4423C123.927 55.4423 124.61 55.5171 125.232 55.657C125.854 55.8017 126.459 56.0037 127.04 56.2659L126.218 59.6414C125.844 59.4917 125.437 59.3614 124.991 59.2438C124.548 59.1323 124.05 59.0738 123.502 59.0738C122.332 59.0738 121.457 59.4631 120.885 60.2389C120.303 61.0166 120.02 62.0357 120.02 63.3043C120.02 64.6444 120.289 65.6858 120.834 66.4237C121.369 67.1597 122.316 67.5303 123.662 67.5303C124.142 67.5303 124.653 67.4807 125.206 67.3871C125.755 67.2916 126.26 67.1422 126.725 66.9324L127.28 70.3952C126.817 70.6034 126.244 70.7783 125.552 70.9323C124.858 71.0823 124.097 71.1599 123.266 71.1599C121.989 71.1599 120.887 70.9533 119.967 70.5477C119.046 70.1423 118.286 69.5889 117.693 68.8894C117.096 68.1884 116.666 67.3618 116.39 66.4077C116.114 65.4523 115.977 64.4158 115.977 63.3043Z" fill="#03435F"/>
<mask id="mask7_48_117" style="mask-type:alpha" maskUnits="userSpaceOnUse" x="115" y="55" width="13" height="17">
<path d="M120.154 56.0673C121.038 55.6555 122.048 55.4424 123.183 55.4424C123.927 55.4424 124.611 55.517 125.232 55.6568C125.853 55.8018 126.459 56.0036 127.04 56.266L126.219 59.6412C125.844 59.4919 125.437 59.3616 124.991 59.2439C124.548 59.1322 124.05 59.0736 123.501 59.0736C122.332 59.0736 121.457 59.4632 120.885 60.2391C120.303 61.0164 120.02 62.0356 120.02 63.3045C120.02 64.6445 120.289 65.6859 120.834 66.4238C121.369 67.1599 122.316 67.5304 123.662 67.5304C124.142 67.5304 124.654 67.4809 125.206 67.3872C125.755 67.2917 126.26 67.1423 126.725 66.9323L127.28 70.3953C126.818 70.6035 126.244 70.7782 125.552 70.9325C124.858 71.0821 124.098 71.16 123.266 71.16C121.989 71.16 120.887 70.9531 119.967 70.5475C119.047 70.1422 118.286 69.589 117.693 68.8898C117.096 68.1886 116.666 67.3619 116.39 66.4078C116.114 65.4524 115.977 64.4157 115.977 63.3045C115.977 62.2247 116.142 61.2074 116.47 60.2535C116.798 59.2963 117.271 58.4663 117.891 57.7555C118.513 57.0449 119.265 56.4853 120.154 56.0673Z" fill="white"/>
</mask>
<g mask="url(#mask7_48_117)">
<path fill-rule="evenodd" clip-rule="evenodd" d="M-188.616 112.667L369.922 112.667V-675.65H-188.616L-188.616 112.667Z" fill="#03435F"/>
<path fill-rule="evenodd" clip-rule="evenodd" d="M109.328 77.7848H133.929V48.8179H109.328V77.7848Z" fill="#03435F"/>
</g>
<path fill-rule="evenodd" clip-rule="evenodd" d="M129.841 70.7568V52.1106L133.803 51.3683V55.8994C134.068 55.8055 134.407 55.7149 134.828 55.6293C135.242 55.5449 135.648 55.5003 136.037 55.5003C137.17 55.5003 138.112 55.6672 138.867 55.9964C139.619 56.3272 140.226 56.7963 140.676 57.4018C141.131 58.0045 141.447 58.7261 141.637 59.5546C141.82 60.389 141.912 61.3178 141.912 62.3385V70.7568H137.951V62.8455C137.951 61.4845 137.787 60.5211 137.46 59.9504C137.132 59.389 136.523 59.1046 135.639 59.1046C135.279 59.1046 134.95 59.1382 134.638 59.2016C134.329 59.2685 134.05 59.3415 133.803 59.4163V70.7568H129.841Z" fill="#03435F"/>
<mask id="mask8_48_117" style="mask-type:alpha" maskUnits="userSpaceOnUse" x="129" y="51" width="13" height="20">
<path d="M129.841 52.1104L133.803 51.3681V55.8995C134.068 55.8054 134.407 55.7148 134.828 55.6291C135.242 55.5448 135.648 55.5004 136.037 55.5004C137.17 55.5004 138.112 55.6673 138.867 55.9963C139.619 56.3273 140.227 56.7961 140.676 57.4019C141.131 58.0044 141.447 58.726 141.637 59.5547C141.82 60.3891 141.912 61.3177 141.912 62.3387V70.7567H137.951V62.8454C137.951 61.4846 137.787 60.521 137.46 59.9503C137.132 59.3891 136.523 59.1045 135.639 59.1045C135.279 59.1045 134.95 59.1381 134.638 59.2018C134.329 59.2684 134.05 59.3414 133.803 59.4162V70.7567H129.841V52.1104Z" fill="white"/>
</mask>
<g mask="url(#mask8_48_117)">
<path fill-rule="evenodd" clip-rule="evenodd" d="M-188.616 112.667L369.922 112.667V-675.65H-188.616L-188.616 112.667Z" fill="#03435F"/>
<path fill-rule="evenodd" clip-rule="evenodd" d="M123.191 77.3812H148.561V44.7432H123.191V77.3812Z" fill="#03435F"/>
</g>
<path fill-rule="evenodd" clip-rule="evenodd" d="M10.366 70.7616V57.2412C10.366 57.2412 12.3577 55.5448 16.7142 55.5448C20.6785 55.5448 22.8555 57.6578 22.8555 62.3082V70.7616H18.8958V62.3082C18.8958 59.3463 17.5061 59.1411 16.319 59.1411C15.1319 59.1411 14.3368 59.7707 14.3368 59.7707V70.7616H10.366Z" fill="#03435F"/>
<mask id="mask9_48_117" style="mask-type:alpha" maskUnits="userSpaceOnUse" x="10" y="55" width="13" height="16">
<path d="M10.366 57.2412C10.366 57.2412 12.3578 55.5448 16.7142 55.5448C20.6786 55.5448 22.8552 57.6576 22.8552 62.3084V70.7616H18.8958V62.3084C18.8958 59.346 17.5062 59.1411 16.319 59.1411C15.1319 59.1411 14.3369 59.7709 14.3369 59.7709V70.7616H10.366V57.2412Z" fill="white"/>
</mask>
<g mask="url(#mask9_48_117)">
<path fill-rule="evenodd" clip-rule="evenodd" d="M-188.616 112.667L369.922 112.667V-675.65H-188.616L-188.616 112.667Z" fill="#03435F"/>
<path fill-rule="evenodd" clip-rule="evenodd" d="M3.71704 77.3862H29.5045V48.9204H3.71704L3.71704 77.3862Z" fill="#03435F"/>
</g>
<path fill-rule="evenodd" clip-rule="evenodd" d="M2.90555 70.7617L2.90555 52.1122L6.86993 51.368L6.86993 70.7617H2.90555Z" fill="#03435F"/>
<mask id="mask10_48_117" style="mask-type:alpha" maskUnits="userSpaceOnUse" x="2" y="51" width="5" height="20">
<path d="M2.90555 52.1125L6.86993 51.368L6.86993 70.7617H2.90555L2.90555 52.1125Z" fill="white"/>
</mask>
<g mask="url(#mask10_48_117)">
<path fill-rule="evenodd" clip-rule="evenodd" d="M-188.616 112.667L369.922 112.667V-675.65H-188.616L-188.616 112.667Z" fill="#03435F"/>
<path fill-rule="evenodd" clip-rule="evenodd" d="M-3.7438 77.3862H13.5193L13.5193 44.7436H-3.7438L-3.7438 77.3862Z" fill="#03435F"/>
</g>
<path fill-rule="evenodd" clip-rule="evenodd" d="M49.7176 64.3725H40.8007C40.8007 64.3725 40.9998 67.5411 44.9595 67.5411C46.942 67.5411 48.9242 66.9097 48.9242 66.9097L49.3209 70.2946C49.3209 70.2946 47.3403 71.1326 44.5677 71.1326C40.6016 71.1326 37.0355 69.0226 37.0355 63.1069C37.0355 58.4548 39.8081 55.5009 43.7711 55.5009C49.7176 55.5009 50.1159 61.8316 49.7176 64.3725ZM43.5766 58.4548C40.9998 58.4548 40.8007 61.4118 40.8007 61.4118H46.3458C46.3458 61.4118 46.1516 58.4548 43.5766 58.4548Z" fill="#03435F"/>
<mask id="mask11_48_117" style="mask-type:alpha" maskUnits="userSpaceOnUse" x="37" y="55" width="13" height="17">
<path d="M37.0358 63.1069C37.0358 58.4548 39.8084 55.5009 43.7712 55.5009C49.7177 55.5009 50.116 61.8319 49.7177 64.3725H40.801C40.801 64.3725 41.0002 67.5411 44.9596 67.5411C46.9421 67.5411 48.9242 66.9097 48.9242 66.9097L49.321 70.2945C49.321 70.2945 47.3404 71.1328 44.5678 71.1328C40.6019 71.1328 37.0358 69.0228 37.0358 63.1069ZM43.5767 58.4548C41.0002 58.4548 40.801 61.4121 40.801 61.4121H46.3462C46.3462 61.4121 46.1517 58.4548 43.5767 58.4548Z" fill="white"/>
</mask>
<g mask="url(#mask11_48_117)">
<path fill-rule="evenodd" clip-rule="evenodd" d="M-188.616 112.667L369.922 112.667V-675.65H-188.616L-188.616 112.667Z" fill="#03435F"/>
<path fill-rule="evenodd" clip-rule="evenodd" d="M30.3867 77.7572H56.4781V48.8763H30.3867L30.3867 77.7572Z" fill="#03435F"/>
</g>
<mask id="mask12_48_117" style="mask-type:alpha" maskUnits="userSpaceOnUse" x="147" y="48" width="27" height="34">
<path d="M147.163 51.3718C147.163 50.4703 158.561 48.5249 166.205 48.5249C169.519 48.5249 172.128 48.8908 172.795 49.866C176.237 54.3941 152.008 82.8021 149.989 81.9404C148.37 81.5095 162.907 63.4277 160.483 56.1065C159.274 52.2351 147.163 52.6657 147.163 51.3718Z" fill="white"/>
</mask>
<g mask="url(#mask12_48_117)">
<path fill-rule="evenodd" clip-rule="evenodd" d="M140.514 88.5844H179.779V41.9006H140.514V88.5844Z" fill="#ED342B"/>
</g>
<mask id="mask13_48_117" style="mask-type:alpha" maskUnits="userSpaceOnUse" x="167" y="34" width="12" height="12">
<path d="M167.749 40.1797C167.749 37.0874 170.1 34.585 172.997 34.585C175.896 34.585 178.244 37.0874 178.244 40.1797C178.244 43.2735 175.896 45.7759 172.997 45.7759C170.1 45.7759 167.749 43.2735 167.749 40.1797Z" fill="white"/>
</mask>
<g mask="url(#mask13_48_117)">
<path fill-rule="evenodd" clip-rule="evenodd" d="M161.1 52.4005H184.893V27.9602H161.1V52.4005Z" fill="#ED342B"/>
</g>
</g>
<defs>
<clipPath id="clip0_48_117">
<rect width="175.924" height="48.0119" fill="white" transform="translate(2.5791 34.2662)"/>
</clipPath>
</defs>
</svg>
