<svg width="127" height="41" viewBox="0 0 127 41" fill="none" xmlns="http://www.w3.org/2000/svg">
<path d="M113.358 8.14647C115.145 8.21264 118.559 9.53606 117.924 14.3004M113.755 4.57324C116.601 4.44089 122.172 6.28045 121.696 14.6974M113.755 1C117.792 1.13234 125.785 4.05711 125.468 14.6974" stroke="#09A5DB" stroke-width="2" stroke-linecap="round"/>
<path d="M17.2532 22.4839C15.2966 22.4839 13.6704 23.4241 12.9843 24.8725C12.1712 23.3987 10.6212 22.4839 8.81715 22.4839C7.19093 22.4839 5.89504 23.2716 5.2598 24.5167V22.7889H1.54999V35.9257H5.2598V27.9978C5.2598 26.6003 6.3016 25.6093 7.80077 25.6093C9.14748 25.6093 10.113 26.6765 10.113 28.2011V35.9511H13.6704V27.9978C13.6704 26.6003 14.7376 25.6093 16.2114 25.6093C17.5835 25.6093 18.5491 26.6765 18.5491 28.2011V35.9511H22.1064V27.5659C22.1064 24.5929 19.9974 22.4839 17.2532 22.4839ZM32.0342 40.4994C34.0924 40.4994 35.7695 39.1527 36.7604 36.5863L42.1473 22.7889H38.3612L35.0834 32.0126L31.6277 22.7889H27.7908L33.2539 36.0527L32.7965 37.0183C32.517 37.5011 31.958 37.7297 31.2465 37.7297C30.8146 37.7297 30.1539 37.5011 29.5187 37.1453L28.731 39.6863C29.6203 40.1691 30.9416 40.4994 32.0342 40.4994ZM54.5367 36.2306C56.7219 36.2306 58.5006 35.3412 59.7965 33.9183L57.3317 31.8347C56.6457 32.597 55.5785 33.1052 54.5621 33.1052C52.6055 33.1052 50.9793 31.3773 50.9793 29.3191C50.9793 27.3118 52.6055 25.6093 54.5367 25.6093C55.5531 25.6093 56.5949 26.0921 57.2555 26.829L59.7203 24.72C58.4498 23.3479 56.6965 22.4839 54.5621 22.4839C50.6744 22.4839 47.3712 25.6093 47.3712 29.3446C47.3712 33.0798 50.649 36.2306 54.5367 36.2306ZM69.55 25.2282V22.7889H65.8402V35.9257H69.55V29.6495C69.55 27.1847 71.3033 25.6093 74.0475 25.6093V22.4839C72.0402 22.4839 70.4139 23.5257 69.55 25.2282ZM86.1554 36.2306C90.0431 36.2306 93.2955 33.0798 93.2955 29.3446C93.2955 25.6093 90.0431 22.4839 86.1554 22.4839C82.2423 22.4839 78.9645 25.6093 78.9645 29.3446C78.9645 33.0798 82.2423 36.2306 86.1554 36.2306ZM86.1554 33.1052C84.1735 33.1052 82.5218 31.3773 82.5218 29.3446C82.5218 27.3118 84.1735 25.6093 86.1554 25.6093C88.112 25.6093 89.7636 27.3118 89.7636 29.3446C89.7636 31.3773 88.112 33.1052 86.1554 33.1052ZM104.013 22.0774C104.013 21.2135 104.572 20.6036 105.258 20.6036C105.766 20.6036 106.275 20.7815 106.529 21.0356L107.418 18.7741C106.656 18.0881 105.461 17.6307 104.394 17.6307C102.082 17.6307 100.456 19.2823 100.456 21.6454V22.7889H98.6516V25.7872H100.456V35.9257H104.013V25.7872H106.859V22.7889H104.013V22.0774ZM119.968 32.6732C119.714 32.9273 119.206 33.1052 118.697 33.1052C118.011 33.1052 117.452 32.4954 117.452 31.6314V25.7872H120.298V22.7889H117.452V19.1807H113.895V22.7889H112.091V25.7872H113.895V32.2158C113.895 34.5789 115.521 36.2306 117.834 36.2306C118.901 36.2306 120.095 35.7732 120.857 35.0871L119.968 32.6732Z" fill="#FFA500"/>
</svg>
