<svg width="100" height="120" viewBox="0 0 182 117" fill="none" xmlns="http://www.w3.org/2000/svg">
<path fill-rule="evenodd" clip-rule="evenodd" d="M91.2035 82.9437C97.1614 88.4405 104.966 91.4858 113.062 91.4731C121.729 91.4179 130.023 87.927 136.133 81.7625C142.242 75.5979 145.671 67.2605 145.671 58.5701C145.671 49.8798 142.242 41.5423 136.133 35.3778C130.023 29.2133 121.729 25.7224 113.062 25.6672C104.965 25.6541 97.1612 28.6994 91.2035 34.1965C87.8144 37.2827 85.1063 41.0453 83.2531 45.2427C81.3999 49.4402 80.4426 53.9798 80.4426 58.5701C80.4426 63.1605 81.3999 67.7001 83.2531 71.8975C85.1063 76.095 87.8144 79.8576 91.2035 82.9437Z" fill="#E9B040"/>
<path fill-rule="evenodd" clip-rule="evenodd" d="M101.738 55.0956C101.626 53.9096 101.4 52.7801 101.175 51.5934H81.2313C81.4722 50.4296 81.7729 49.279 82.1324 48.1464H100.217C99.8249 46.9573 99.3742 45.7899 98.8654 44.6442H83.5414C84.105 43.4476 84.7239 42.2802 85.398 41.1421H96.9479C96.2047 39.9357 95.3764 38.7842 94.4693 37.6964H87.8798C88.8995 36.4479 90.0106 35.2772 91.2038 34.1942C87.2522 30.6533 82.5021 28.1276 77.3618 26.8341C72.2215 25.5407 66.8448 25.5182 61.694 26.7687C56.5431 28.0192 51.7722 30.5053 47.7914 34.0131C43.8106 37.5209 40.7391 41.9455 38.8408 46.9066C36.9426 51.8677 36.2745 57.2167 36.8939 62.4939C37.5133 67.7711 39.4017 72.8186 42.3968 77.2023C45.3918 81.586 49.4039 85.1749 54.0882 87.6603C58.7724 90.1457 63.9886 91.4533 69.2883 91.4708C77.4018 91.4838 85.2239 88.4394 91.2038 82.9414C92.3787 81.8773 93.4713 80.7252 94.472 79.4951H87.8798C86.9898 78.3743 86.1622 77.2051 85.4006 75.9929H96.9505C97.6767 74.8759 98.3171 73.7052 98.8661 72.4907H83.5414C83.014 71.3666 82.5437 70.2163 82.1324 69.0444H100.217C100.596 67.8943 100.916 66.7253 101.174 65.5422C101.421 64.3852 101.61 63.2163 101.738 62.0401C101.852 60.8949 101.909 59.7446 101.908 58.5937C101.908 57.4097 101.851 56.2237 101.738 55.0942V55.0956Z" fill="#CC2131"/>
<path fill-rule="evenodd" clip-rule="evenodd" d="M141.345 66.2228C141.339 66.085 141.36 65.9474 141.408 65.8181C141.456 65.6889 141.53 65.5707 141.624 65.4706C141.719 65.3704 141.833 65.2905 141.959 65.2355C142.085 65.1805 142.221 65.1516 142.359 65.1505C142.5 65.1457 142.642 65.1701 142.774 65.2223C142.905 65.2745 143.025 65.3533 143.126 65.4539C143.226 65.5544 143.304 65.6745 143.357 65.8068C143.409 65.9391 143.433 66.0807 143.428 66.2228C143.433 66.3631 143.41 66.503 143.36 66.6341C143.31 66.7651 143.234 66.8848 143.137 66.9858C143.039 67.0868 142.923 67.1671 142.794 67.222C142.665 67.2769 142.526 67.3052 142.386 67.3052C142.246 67.3052 142.108 67.2769 141.979 67.222C141.85 67.1671 141.734 67.0868 141.636 66.9858C141.539 66.8848 141.463 66.7651 141.413 66.6341C141.363 66.503 141.34 66.3631 141.345 66.2228ZM142.359 67.0133C142.467 67.021 142.576 67.0063 142.678 66.97C142.78 66.9338 142.874 66.8768 142.953 66.8027C143.033 66.7285 143.096 66.6388 143.139 66.539C143.183 66.4393 143.205 66.3316 143.205 66.2228C143.205 66.114 143.183 66.0064 143.139 65.9066C143.096 65.8069 143.033 65.7171 142.953 65.643C142.874 65.5688 142.78 65.5118 142.678 65.4756C142.576 65.4394 142.467 65.4247 142.359 65.4324C142.15 65.4324 141.949 65.5157 141.801 65.6639C141.653 65.8121 141.57 66.0132 141.57 66.2228C141.57 66.4325 141.653 66.6335 141.801 66.7818C141.949 66.93 142.15 67.0133 142.359 67.0133ZM142.246 66.6742H142.02V65.7708H142.64C142.752 65.8279 142.752 65.9409 142.752 66.054C142.745 66.1025 142.725 66.1484 142.696 66.1878C142.667 66.2271 142.628 66.2588 142.584 66.28L142.81 66.6749H142.527L142.414 66.3358H142.246V66.1663H142.359C142.414 66.1663 142.471 66.1663 142.471 66.1091C142.527 66.1091 142.527 66.0533 142.527 65.9961C142.527 65.9887 142.526 65.9814 142.523 65.9745C142.52 65.9677 142.516 65.9615 142.511 65.9562C142.506 65.951 142.5 65.9469 142.493 65.9442C142.486 65.9414 142.479 65.9401 142.471 65.9403C142.471 65.8831 142.414 65.9403 142.359 65.9403H142.246V66.6742Z" fill="white"/>
<path fill-rule="evenodd" clip-rule="evenodd" d="M80.1046 68.0887C79.2452 68.3533 78.3552 68.5052 77.4569 68.5407C75.7668 68.5407 74.7523 67.4671 74.7523 65.5491C74.7643 65.1317 74.8019 64.7154 74.865 64.3026L75.0905 63.0043L75.2596 61.9306L76.7806 52.6686H80.1622L79.7644 54.7023H81.9067L81.3995 58.0927H79.2591L78.358 63.6279C78.3187 63.8136 78.2998 64.0031 78.3017 64.193C78.3017 64.9276 78.6398 65.2094 79.4846 65.2094C79.8439 65.2031 80.202 65.1653 80.5548 65.0964L80.1046 68.088V68.0887ZM91.0345 67.9757C89.8616 68.3105 88.6482 68.4814 87.4287 68.4836C83.5976 68.4836 81.4002 66.45 81.4002 62.4405C81.4002 57.7517 83.9921 54.3625 87.5971 54.3625C90.4702 54.3625 92.3294 56.2832 92.3294 59.2761C92.3183 60.3982 92.1862 61.5158 91.9356 62.6094H84.8905C84.8502 62.7566 84.8312 62.9088 84.8342 63.0615C84.8342 64.643 85.9044 65.4335 87.9327 65.4335C89.2011 65.429 90.4524 65.1399 91.5947 64.5872L91.0345 67.9757ZM88.9498 59.8983V59.2202C88.9789 58.9882 88.9556 58.7526 88.8818 58.5308C88.808 58.309 88.6855 58.1066 88.5233 57.9386C88.3611 57.7705 88.1634 57.6411 87.9447 57.5599C87.726 57.4786 87.4919 57.4476 87.2596 57.4692C86.1324 57.4692 85.3441 58.3161 85.0052 59.8977H88.9491L88.9498 59.8983ZM53.0636 68.2575H49.5693L51.5976 55.4362L47.0344 68.2575H44.6122L44.3304 55.4934L42.1894 68.2575H38.7527L41.5131 51.595H46.6399L46.7526 61.8761L50.1892 51.595H55.8252L53.0636 68.2575ZM61.5713 62.2145C61.3485 62.1714 61.1218 62.1523 60.895 62.1573C58.8667 62.1573 57.8529 62.9478 57.8529 64.191C57.8338 64.3715 57.8533 64.5541 57.9101 64.7265C57.9669 64.8989 58.0597 65.0572 58.1823 65.1909C58.3049 65.3245 58.4544 65.4305 58.621 65.5016C58.7876 65.5728 58.9675 65.6076 59.1485 65.6037C60.8386 65.6037 61.5143 64.191 61.5713 62.2132V62.2145ZM64.388 68.2575H61.3446L61.4009 66.8462C60.6119 67.9185 59.5444 68.4836 57.6825 68.4836C55.9923 68.4836 54.5276 66.9592 54.5276 64.756C54.5343 64.1618 54.6292 63.5718 54.8094 63.0056C55.3724 60.9148 57.457 59.6151 60.6682 59.5593C61.0661 59.5593 61.6821 59.5593 62.2457 59.6165C62.3286 59.3226 62.3664 59.0177 62.3577 58.7123C62.3577 57.8082 61.6284 57.5257 59.9919 57.5257C58.9978 57.5201 58.009 57.6727 57.0625 57.9777L56.5553 58.0907L56.3298 58.1466L56.8371 55.0965C58.1601 54.636 59.5477 54.3891 60.9481 54.3652C63.9902 54.3652 65.624 55.7772 65.624 58.3753C65.6596 59.2638 65.603 60.1537 65.4549 61.0305L64.6672 65.8855L64.5544 66.7332L64.4981 67.4113L64.4417 67.8633L64.3854 68.2575H64.388ZM108.05 54.8146C109.159 54.852 110.243 55.1623 111.205 55.7181L111.824 52.1029C111.531 51.9714 111.23 51.8582 110.923 51.7638L109.515 51.365C108.979 51.2437 108.43 51.1868 107.881 51.1954C106.134 51.1954 105.12 51.2519 104.05 51.8735C103.28 52.3824 102.579 52.9901 101.965 53.6811L101.514 53.5681L97.9084 56.1096L98.0781 54.6976H94.359L92.163 68.2536H95.713L97.008 60.968C97.008 60.968 97.5159 59.9502 97.7407 59.6125C97.9596 59.3029 98.2594 59.06 98.6073 58.9104C98.9551 58.7609 99.3374 58.7105 99.7119 58.7649H99.9944C99.8761 59.6257 99.8194 60.4939 99.8247 61.3629C99.8247 65.7685 102.303 68.5368 106.134 68.5368C107.183 68.5299 108.226 68.3778 109.233 68.0847L109.854 64.2441C108.95 64.7886 107.924 65.099 106.87 65.1476C104.786 65.1476 103.546 63.566 103.546 61.081C103.546 57.4093 105.402 54.8113 108.055 54.8113L108.05 54.8146ZM137.964 51.595L137.176 56.3397C136.864 55.7586 136.4 55.2733 135.835 54.9352C135.269 54.597 134.623 54.4187 133.964 54.4191C132.973 54.4482 132.01 54.7545 131.184 55.3035C130.358 55.8524 129.701 56.6222 129.288 57.5257V57.4698L127.033 56.1136L127.259 54.7016H123.484L121.343 68.2575H124.836L126.02 60.972C126.02 60.972 126.921 59.9542 127.147 59.6165C127.336 59.3723 127.574 59.1707 127.846 59.0247C128.117 58.8787 128.417 58.7915 128.724 58.7688C128.296 60.0618 128.087 61.4174 128.105 62.7796C128.105 66.1701 129.851 68.4304 132.442 68.4304C133.067 68.4429 133.686 68.3119 134.252 68.0474C134.819 67.783 135.317 67.3921 135.71 66.9047L135.541 68.2602H138.864L141.568 51.5976H137.961L137.964 51.595ZM133.626 65.0386C132.442 65.0386 131.823 64.1351 131.823 62.3834C131.823 59.7282 132.95 57.8082 134.582 57.8082C135.822 57.8082 136.439 58.7688 136.439 60.4634C136.439 63.1745 135.312 65.0386 133.622 65.0386H133.626ZM117.345 62.2145C117.122 62.1714 116.895 62.1523 116.668 62.1573C114.639 62.1573 113.625 62.9478 113.625 64.191C113.606 64.3716 113.626 64.5541 113.682 64.7265C113.739 64.899 113.832 65.0572 113.955 65.1909C114.077 65.3245 114.227 65.4305 114.394 65.5016C114.56 65.5728 114.74 65.6076 114.921 65.6037C116.611 65.6037 117.288 64.191 117.345 62.2145ZM120.161 68.2575H117.062L117.175 66.8462C116.387 67.9185 115.318 68.4836 113.457 68.4836C111.71 68.4836 110.19 67.015 110.19 64.756C110.19 61.5371 112.611 59.56 116.442 59.56C116.95 59.5525 117.458 59.5716 117.964 59.6171C118.06 59.3246 118.117 59.0206 118.134 58.713C118.134 57.8089 117.404 57.5263 115.711 57.5263C114.717 57.5252 113.729 57.6777 112.782 57.9784L112.331 58.0914L112.105 58.1473L112.612 55.0972C113.935 54.6368 115.322 54.39 116.723 54.3659C119.765 54.3659 121.342 55.7779 121.342 58.3759C121.408 59.2646 121.351 60.158 121.174 61.0312L120.445 65.8889L120.332 66.7365L120.219 67.4146L120.163 67.8666V68.2602L120.161 68.2575ZM71.7666 57.5822C72.6539 57.5869 73.5395 57.6625 74.4148 57.8082L74.9221 54.6451C73.9076 54.5321 72.5556 54.3625 71.7666 54.3625C67.8233 54.3625 66.5284 56.5092 66.5284 58.9942C66.5284 60.6329 67.2577 61.8183 69.176 62.7218C70.5843 63.3998 70.8098 63.5122 70.8098 64.1345C70.8098 64.9807 70.0804 65.49 68.7251 65.49C67.6301 65.4899 66.5435 65.2987 65.5139 64.9249L65.1161 68.0308L65.1718 68.088L65.8481 68.201C66.1456 68.2729 66.4465 68.3292 66.7498 68.3699C67.5946 68.4271 68.3273 68.4829 68.7781 68.4829C72.722 68.4829 74.3558 66.9585 74.3558 63.9623C74.3558 62.1008 73.454 60.9707 71.7075 60.1789C70.1865 59.5001 70.0174 59.3884 70.0174 58.7662C70.0174 58.1439 70.6937 57.5802 71.7639 57.5802L71.7666 57.5822Z" fill="#1B3771"/>
<path fill-rule="evenodd" clip-rule="evenodd" d="M112.78 51.0298L112.16 54.645C111.198 54.0888 110.115 53.7785 109.005 53.7415C106.357 53.7415 104.496 56.3396 104.496 60.0113C104.496 62.5535 105.735 64.0778 107.821 64.0778C108.866 64.0258 109.887 63.7364 110.805 63.2316L110.185 67.0149C109.18 67.3231 108.137 67.4944 107.086 67.5242C103.256 67.5242 100.889 64.7559 100.889 60.2945C100.889 54.3631 104.157 50.1829 108.833 50.1829C109.382 50.1743 109.93 50.2312 110.466 50.3524L111.875 50.6914C112.326 50.8609 112.439 50.9175 112.777 51.0298H112.78ZM101.4 53.5155H101.062C99.88 53.5155 99.2056 54.0806 98.1328 55.718L98.471 53.6278H95.2591L93.063 67.1845H96.6131C97.908 58.8811 98.2462 57.4691 99.9363 57.4691H100.162C100.421 56.1107 100.876 54.7976 101.514 53.5713L101.4 53.5155ZM81.0059 67.0149C80.1943 67.3148 79.336 67.4679 78.4711 67.467C76.6682 67.467 75.6537 66.4505 75.6537 64.4754C75.666 64.0778 75.7036 63.6815 75.7664 63.2887L75.9919 61.9332L76.1609 60.8609L77.682 51.5962H81.177L80.7792 53.6298H82.582L82.1311 56.9625H80.3296L79.3722 62.6133C79.3282 62.7983 79.3092 62.9883 79.3158 63.1784C79.3158 63.8565 79.6539 64.139 80.4987 64.139C80.8222 64.1683 81.1483 64.1298 81.4562 64.026L81.0059 67.0176V67.0149ZM67.4284 57.9205C67.4284 59.6157 68.2168 60.801 70.076 61.7052C71.5407 62.3833 71.7662 62.6086 71.7662 63.1737C71.7662 64.0213 71.1462 64.4162 69.7379 64.4162C68.6666 64.4089 67.6027 64.2376 66.583 63.9083L66.0758 67.0143L66.2449 67.0714L66.8648 67.1845C67.1777 67.2638 67.4996 67.3018 67.8223 67.2975C68.4572 67.3823 69.0974 67.4201 69.7379 67.4105C73.4557 67.4105 75.2028 65.9978 75.2028 62.8899C75.2028 61.0251 74.4735 59.9514 72.7243 59.1051C71.2032 58.4297 71.0322 58.2608 71.0322 57.6393C71.0322 56.908 71.6521 56.5663 72.7787 56.5663C73.6264 56.5737 74.473 56.6303 75.3142 56.7358L75.8208 53.6292C74.7966 53.4561 73.7608 53.3616 72.7223 53.3466C68.7784 53.3466 67.3701 55.4361 67.4264 57.9211L67.4284 57.9205ZM139.768 67.1845H136.444L136.614 65.8848C136.21 66.355 135.707 66.7303 135.142 66.9841C134.577 67.2379 133.964 67.364 133.345 67.3533C130.753 67.3533 129.063 65.1515 129.063 61.7623C129.063 57.2417 131.712 53.4018 134.809 53.4018C135.483 53.4056 136.145 53.5778 136.735 53.9028C137.326 54.2279 137.826 54.6955 138.191 55.2633L138.979 50.5186H142.472L139.768 67.1818V67.1845ZM134.585 64.0213C136.219 64.0213 137.346 62.1007 137.346 59.4455C137.346 57.6944 136.725 56.7903 135.489 56.7903C133.912 56.7903 132.729 58.6517 132.729 61.3109C132.729 63.1192 133.348 64.0231 134.586 64.0227L134.585 64.0213ZM91.8224 66.9019C90.6401 67.2868 89.4034 67.4776 88.1604 67.467C84.2165 67.467 82.1882 65.3775 82.1882 61.3668C82.1882 56.7351 84.7801 53.2895 88.3294 53.2895C91.2588 53.2895 93.1174 55.2101 93.1174 58.2037C93.1095 59.3483 92.958 60.4874 92.6665 61.5942H85.6818C85.6389 61.7225 85.6198 61.8577 85.6255 61.993C85.6255 63.5746 86.6963 64.365 88.724 64.365C89.9955 64.3881 91.2532 64.0969 92.386 63.5174L91.8224 66.9079V66.9019ZM89.8505 58.8246V58.1472C89.8796 57.9151 89.8563 57.6796 89.7825 57.4577C89.7087 57.2359 89.5862 57.0335 89.424 56.8655C89.2618 56.6975 89.0641 56.568 88.8454 56.4868C88.6267 56.4056 88.3926 56.3746 88.1604 56.3961C87.0332 56.3961 86.2448 57.2437 85.906 58.8246H89.8498H89.8505ZM53.9637 67.1851H50.4706L52.499 54.3625L47.9358 67.1851H45.5129L45.2311 54.4755L43.0908 67.1851H39.8232L42.5868 50.5219H47.6573L47.825 60.8589L51.2066 50.5219H56.728L53.9676 67.1851H53.9637ZM62.6962 61.1408C62.358 61.1408 62.1889 61.0849 61.9071 61.0849C59.9352 61.0849 58.9233 61.8162 58.9233 63.1744C58.8989 63.3484 58.9132 63.5257 58.9652 63.6936C59.0172 63.8614 59.1056 64.0157 59.2241 64.1452C59.3425 64.2748 59.4881 64.3765 59.6504 64.443C59.8126 64.5095 59.9876 64.5392 60.1626 64.5299C61.6273 64.5299 62.6418 63.1744 62.6982 61.1394L62.6962 61.1408ZM65.2874 67.1851H62.3573L62.4124 65.7724C61.97 66.3256 61.4009 66.7635 60.7535 67.0488C60.1061 67.3341 59.3995 67.4584 58.6939 67.4112C56.7783 67.4112 55.4827 65.9426 55.4827 63.7395C55.4827 60.4075 57.7371 58.4875 61.6797 58.4875C62.0775 58.4875 62.5815 58.544 63.1444 58.5999C63.2242 58.3249 63.2622 58.0393 63.2571 57.7529C63.2571 56.8495 62.6372 56.5104 61.0027 56.5104C60.0158 56.4983 59.0315 56.6122 58.0733 56.8495L57.5661 57.019L57.2279 57.0755L57.7351 54.0254C59.1013 53.5862 60.5261 53.3575 61.9608 53.3473C65.003 53.3473 66.6367 54.7028 66.6367 57.3009C66.615 58.2109 66.5208 59.1177 66.3549 60.0126L65.5659 64.8144L65.4532 65.6607L65.3968 66.3388L65.3405 66.8481L65.2854 67.1858L65.2874 67.1851ZM118.471 61.1408C118.073 61.1408 117.907 61.0849 117.682 61.0849C115.654 61.0849 114.639 61.8162 114.639 63.1744C114.621 63.3521 114.642 63.5316 114.7 63.7005C114.757 63.8694 114.851 64.0237 114.975 64.1526C115.098 64.2815 115.248 64.382 115.414 64.4472C115.579 64.5123 115.757 64.5406 115.935 64.5299C117.344 64.5299 118.414 63.1744 118.471 61.1394V61.1408ZM121.062 67.1851H118.133L118.188 65.7724C117.746 66.3257 117.177 66.7636 116.53 67.049C115.883 67.3343 115.176 67.4586 114.471 67.4112C112.555 67.4112 111.259 65.9426 111.259 63.7395C111.259 60.4075 113.513 58.4875 117.456 58.4875C117.854 58.4875 118.358 58.544 118.865 58.5999C118.955 58.3255 119.012 58.0411 119.034 57.7529C119.034 56.8495 118.414 56.5104 116.78 56.5104C115.775 56.4987 114.773 56.6125 113.796 56.8495L113.345 57.019L113.007 57.0755L113.514 54.0254C114.88 53.5862 116.305 53.3576 117.74 53.3473C120.782 53.3473 122.359 54.7028 122.359 57.3009C122.367 58.2125 122.273 59.1221 122.078 60.0126L121.349 64.8144L121.236 65.6607L121.123 66.3388L121.067 66.8481V67.1858L121.062 67.1851ZM130.527 53.5155H130.188C129.006 53.5155 128.332 54.0806 127.259 55.718L127.597 53.6278H124.385L122.244 67.1845H125.735C127.031 58.8811 127.369 57.4691 129.059 57.4691H129.285C129.544 56.1107 129.999 54.7976 130.637 53.5713L130.524 53.5155H130.527Z" fill="white"/>
</svg>
