<svg width="100" height="120" viewBox="0 0 143 163" fill="none" xmlns="http://www.w3.org/2000/svg">
<path d="M62.5058 5.1971C66.5032 -1.7143 76.4968 -1.7143 80.4942 5.1971L141.593 110.834C145.591 117.746 140.594 126.385 132.599 126.385H10.4012C2.40627 126.385 -2.59053 117.746 1.40691 110.834L62.5058 5.1971Z" fill="#85C226"/>
<path d="M64.2321 99.1003C64.2321 111.469 54.1874 121.496 41.7966 121.496C29.4058 121.496 19.361 111.469 19.361 99.1003C19.361 86.7317 29.4058 76.7049 41.7966 76.7049C54.1874 76.7049 64.2321 86.7317 64.2321 99.1003Z" fill="white"/>
<path d="M25.6293 90.4833C24.0145 93.5021 23.2803 96.9125 23.5102 100.327C23.7401 103.742 24.9248 107.023 26.9297 109.799C28.9347 112.575 31.6794 114.734 34.8522 116.031C38.0249 117.328 41.4984 117.71 44.8779 117.135L44.7022 116.106C41.5154 116.649 38.24 116.288 35.2482 115.066C32.2564 113.843 29.6682 111.807 27.7776 109.189C25.887 106.571 24.7699 103.477 24.5531 100.257C24.3363 97.0373 25.0286 93.8214 26.5513 90.9747L25.6293 90.4833Z" fill="#85C226"/>
<path d="M3.30486 138.491V144.519H1.32855V134.367H3.22554V136.019H3.35113C3.58467 135.481 3.95041 135.05 4.44834 134.724C4.95068 134.397 5.58301 134.234 6.34533 134.234C7.03715 134.234 7.64304 134.38 8.16301 134.671C8.68297 134.957 9.08617 135.385 9.37259 135.953C9.65901 136.521 9.80222 137.224 9.80222 138.061V144.519H7.82591V138.299C7.82591 137.564 7.63423 136.988 7.25087 136.574C6.8675 136.156 6.34093 135.946 5.67114 135.946C5.21287 135.946 4.80527 136.045 4.44834 136.244C4.09583 136.442 3.81601 136.733 3.60891 137.116C3.40621 137.495 3.30486 137.954 3.30486 138.491ZM16.3379 144.744C15.6946 144.744 15.1129 144.625 14.5929 144.387C14.073 144.145 13.661 143.794 13.3569 143.336C13.0573 142.878 12.9075 142.316 12.9075 141.651C12.9075 141.078 13.0176 140.606 13.238 140.236C13.4583 139.866 13.7557 139.573 14.1303 139.357C14.5048 139.141 14.9234 138.978 15.3861 138.868C15.8488 138.758 16.3203 138.674 16.8006 138.617C17.4087 138.546 17.9022 138.489 18.2812 138.445C18.6601 138.396 18.9355 138.319 19.1074 138.213C19.2792 138.108 19.3652 137.936 19.3652 137.698V137.652C19.3652 137.074 19.2021 136.627 18.876 136.31C18.5544 135.993 18.0741 135.834 17.4351 135.834C16.7697 135.834 16.2454 135.982 15.862 136.277C15.4831 136.568 15.2209 136.892 15.0755 137.248L13.2181 136.825C13.4384 136.209 13.7601 135.711 14.1831 135.332C14.6106 134.948 15.1019 134.671 15.6571 134.499C16.2123 134.323 16.7962 134.234 17.4087 134.234C17.8141 134.234 18.2437 134.283 18.6976 134.38C19.1559 134.472 19.5833 134.644 19.9799 134.895C20.3809 135.147 20.7091 135.506 20.9647 135.973C21.2203 136.435 21.3481 137.037 21.3481 137.777V144.519H19.418V143.131H19.3387C19.2109 143.387 19.0193 143.638 18.7637 143.885C18.5081 144.131 18.1798 144.336 17.7788 144.499C17.3778 144.662 16.8975 144.744 16.3379 144.744ZM16.7675 143.158C17.3139 143.158 17.781 143.05 18.1688 142.834C18.561 142.618 18.8584 142.336 19.0611 141.988C19.2682 141.635 19.3718 141.258 19.3718 140.857V139.549C19.3013 139.619 19.1647 139.685 18.962 139.747C18.7637 139.804 18.5367 139.855 18.2812 139.899C18.0256 139.939 17.7766 139.976 17.5343 140.011C17.2919 140.042 17.0892 140.069 16.9262 140.091C16.5428 140.139 16.1925 140.221 15.8752 140.335C15.5624 140.45 15.3112 140.615 15.1217 140.831C14.9367 141.042 14.8441 141.324 14.8441 141.677C14.8441 142.166 15.0248 142.536 15.3861 142.787C15.7474 143.034 16.2079 143.158 16.7675 143.158ZM29.6502 134.367V135.953H24.1047V134.367H29.6502ZM25.5919 131.934H27.5682V141.538C27.5682 141.922 27.6254 142.21 27.74 142.404C27.8546 142.594 28.0022 142.724 28.1829 142.794C28.3679 142.86 28.5684 142.893 28.7844 142.893C28.943 142.893 29.0818 142.882 29.2008 142.86C29.3197 142.838 29.4123 142.82 29.4784 142.807L29.8353 144.44C29.7207 144.484 29.5577 144.528 29.3462 144.572C29.1347 144.621 28.8703 144.647 28.553 144.651C28.033 144.66 27.5483 144.568 27.0989 144.374C26.6494 144.18 26.2859 143.88 26.0083 143.475C25.7307 143.069 25.5919 142.56 25.5919 141.948V131.934ZM32.767 144.519V134.367H34.7433V144.519H32.767ZM33.7651 132.8C33.4214 132.8 33.1262 132.686 32.8794 132.456C32.637 132.223 32.5159 131.945 32.5159 131.624C32.5159 131.298 32.637 131.02 32.8794 130.791C33.1262 130.557 33.4214 130.44 33.7651 130.44C34.1088 130.44 34.4018 130.557 34.6442 130.791C34.891 131.02 35.0143 131.298 35.0143 131.624C35.0143 131.945 34.891 132.223 34.6442 132.456C34.4018 132.686 34.1088 132.8 33.7651 132.8ZM42.6092 144.724C41.6574 144.724 40.8268 144.506 40.1174 144.07C39.4079 143.633 38.8571 143.023 38.465 142.239C38.0728 141.454 37.8767 140.538 37.8767 139.489C37.8767 138.436 38.0728 137.515 38.465 136.726C38.8571 135.938 39.4079 135.325 40.1174 134.889C40.8268 134.453 41.6574 134.234 42.6092 134.234C43.561 134.234 44.3917 134.453 45.1011 134.889C45.8106 135.325 46.3614 135.938 46.7535 136.726C47.1457 137.515 47.3418 138.436 47.3418 139.489C47.3418 140.538 47.1457 141.454 46.7535 142.239C46.3614 143.023 45.8106 143.633 45.1011 144.07C44.3917 144.506 43.561 144.724 42.6092 144.724ZM42.6159 143.065C43.2328 143.065 43.7439 142.902 44.1493 142.576C44.5547 142.25 44.8544 141.816 45.0482 141.274C45.2465 140.732 45.3457 140.135 45.3457 139.483C45.3457 138.835 45.2465 138.24 45.0482 137.698C44.8544 137.152 44.5547 136.713 44.1493 136.383C43.7439 136.052 43.2328 135.887 42.6159 135.887C41.9945 135.887 41.479 136.052 41.0692 136.383C40.6638 136.713 40.3619 137.152 40.1637 137.698C39.9698 138.24 39.8728 138.835 39.8728 139.483C39.8728 140.135 39.9698 140.732 40.1637 141.274C40.3619 141.816 40.6638 142.25 41.0692 142.576C41.479 142.902 41.9945 143.065 42.6159 143.065ZM52.4548 138.491V144.519H50.4785V134.367H52.3754V136.019H52.501C52.7346 135.481 53.1003 135.05 53.5982 134.724C54.1006 134.397 54.7329 134.234 55.4952 134.234C56.1871 134.234 56.7929 134.38 57.3129 134.671C57.8329 134.957 58.2361 135.385 58.5225 135.953C58.8089 136.521 58.9521 137.224 58.9521 138.061V144.519H56.9758V138.299C56.9758 137.564 56.7841 136.988 56.4008 136.574C56.0174 136.156 55.4908 135.946 54.821 135.946C54.3628 135.946 53.9552 136.045 53.5982 136.244C53.2457 136.442 52.9659 136.733 52.7588 137.116C52.5561 137.495 52.4548 137.954 52.4548 138.491ZM65.4878 144.744C64.8445 144.744 64.2628 144.625 63.7428 144.387C63.2229 144.145 62.8109 143.794 62.5068 143.336C62.2072 142.878 62.0574 142.316 62.0574 141.651C62.0574 141.078 62.1675 140.606 62.3879 140.236C62.6082 139.866 62.9056 139.573 63.2802 139.357C63.6547 139.141 64.0733 138.978 64.536 138.868C64.9987 138.758 65.4702 138.674 65.9505 138.617C66.5586 138.546 67.0521 138.489 67.4311 138.445C67.81 138.396 68.0854 138.319 68.2573 138.213C68.4291 138.108 68.5151 137.936 68.5151 137.698V137.652C68.5151 137.074 68.352 136.627 68.0259 136.31C67.7043 135.993 67.224 135.834 66.585 135.834C65.9196 135.834 65.3953 135.982 65.0119 136.277C64.633 136.568 64.3708 136.892 64.2254 137.248L62.368 136.825C62.5883 136.209 62.91 135.711 63.333 135.332C63.7605 134.948 64.2518 134.671 64.807 134.499C65.3622 134.323 65.9461 134.234 66.5586 134.234C66.964 134.234 67.3936 134.283 67.8475 134.38C68.3058 134.472 68.7332 134.644 69.1298 134.895C69.5308 135.147 69.859 135.506 70.1146 135.973C70.3702 136.435 70.498 137.037 70.498 137.777V144.519H68.5679V143.131H68.4886C68.3608 143.387 68.1692 143.638 67.9136 143.885C67.658 144.131 67.3297 144.336 66.9287 144.499C66.5277 144.662 66.0474 144.744 65.4878 144.744ZM65.9174 143.158C66.4638 143.158 66.9309 143.05 67.3187 142.834C67.7109 142.618 68.0083 142.336 68.211 141.988C68.4181 141.635 68.5217 141.258 68.5217 140.857V139.549C68.4512 139.619 68.3146 139.685 68.1119 139.747C67.9136 139.804 67.6866 139.855 67.4311 139.899C67.1755 139.939 66.9265 139.976 66.6842 140.011C66.4418 140.042 66.2391 140.069 66.0761 140.091C65.6927 140.139 65.3424 140.221 65.0251 140.335C64.7123 140.45 64.4611 140.615 64.2716 140.831C64.0866 141.042 63.994 141.324 63.994 141.677C63.994 142.166 64.1747 142.536 64.536 142.787C64.8973 143.034 65.3578 143.158 65.9174 143.158ZM76.0373 130.982V144.519H74.061V130.982H76.0373ZM87.4595 130.982V144.519H85.4832V130.982H87.4595ZM95.3254 144.724C94.3736 144.724 93.543 144.506 92.8336 144.07C92.1241 143.633 91.5733 143.023 91.1811 142.239C90.789 141.454 90.5929 140.538 90.5929 139.489C90.5929 138.436 90.789 137.515 91.1811 136.726C91.5733 135.938 92.1241 135.325 92.8336 134.889C93.543 134.453 94.3736 134.234 95.3254 134.234C96.2772 134.234 97.1078 134.453 97.8173 134.889C98.5267 135.325 99.0775 135.938 99.4697 136.726C99.8619 137.515 100.058 138.436 100.058 139.489C100.058 140.538 99.8619 141.454 99.4697 142.239C99.0775 143.023 98.5267 143.633 97.8173 144.07C97.1078 144.506 96.2772 144.724 95.3254 144.724ZM95.332 143.065C95.9489 143.065 96.4601 142.902 96.8655 142.576C97.2709 142.25 97.5705 141.816 97.7644 141.274C97.9627 140.732 98.0619 140.135 98.0619 139.483C98.0619 138.835 97.9627 138.24 97.7644 137.698C97.5705 137.152 97.2709 136.713 96.8655 136.383C96.4601 136.052 95.9489 135.887 95.332 135.887C94.7107 135.887 94.1952 136.052 93.7854 136.383C93.38 136.713 93.0781 137.152 92.8798 137.698C92.6859 138.24 92.589 138.835 92.589 139.483C92.589 140.135 92.6859 140.732 92.8798 141.274C93.0781 141.816 93.38 142.25 93.7854 142.576C94.1952 142.902 94.7107 143.065 95.332 143.065ZM107.934 134.367V135.953H102.388V134.367H107.934ZM103.875 131.934H105.852V141.538C105.852 141.922 105.909 142.21 106.024 142.404C106.138 142.594 106.286 142.724 106.466 142.794C106.652 142.86 106.852 142.893 107.068 142.893C107.227 142.893 107.365 142.882 107.484 142.86C107.603 142.838 107.696 142.82 107.762 142.807L108.119 144.44C108.004 144.484 107.841 144.528 107.63 144.572C107.418 144.621 107.154 144.647 106.837 144.651C106.317 144.66 105.832 144.568 105.382 144.374C104.933 144.18 104.569 143.88 104.292 143.475C104.014 143.069 103.875 142.56 103.875 141.948V131.934ZM115.317 144.724C114.317 144.724 113.455 144.51 112.733 144.083C112.015 143.651 111.459 143.045 111.067 142.265C110.679 141.481 110.485 140.562 110.485 139.509C110.485 138.469 110.679 137.553 111.067 136.759C111.459 135.966 112.006 135.347 112.706 134.902C113.411 134.457 114.235 134.234 115.178 134.234C115.751 134.234 116.306 134.329 116.844 134.519C117.382 134.708 117.864 135.006 118.292 135.411C118.719 135.816 119.056 136.343 119.303 136.991C119.55 137.634 119.673 138.416 119.673 139.337V140.038H111.603V138.557H117.736C117.736 138.037 117.631 137.577 117.419 137.176C117.208 136.77 116.91 136.451 116.527 136.217C116.148 135.984 115.703 135.867 115.192 135.867C114.636 135.867 114.152 136.004 113.737 136.277C113.328 136.546 113.01 136.898 112.786 137.334C112.565 137.766 112.455 138.236 112.455 138.742V139.899C112.455 140.578 112.574 141.155 112.812 141.631C113.054 142.107 113.392 142.47 113.823 142.721C114.255 142.968 114.76 143.091 115.337 143.091C115.712 143.091 116.053 143.039 116.362 142.933C116.67 142.823 116.937 142.66 117.161 142.444C117.386 142.228 117.558 141.961 117.677 141.644L119.547 141.981C119.398 142.532 119.129 143.014 118.741 143.429C118.358 143.838 117.875 144.158 117.294 144.387C116.716 144.612 116.057 144.724 115.317 144.724ZM122.796 144.519V134.367H124.707V135.979H124.812C124.997 135.433 125.324 135.003 125.791 134.691C126.262 134.373 126.795 134.215 127.39 134.215C127.514 134.215 127.659 134.219 127.826 134.228C127.998 134.237 128.133 134.248 128.23 134.261V136.151C128.15 136.129 128.009 136.105 127.807 136.079C127.604 136.048 127.401 136.032 127.199 136.032C126.731 136.032 126.315 136.131 125.949 136.33C125.588 136.524 125.302 136.795 125.09 137.143C124.878 137.486 124.773 137.879 124.773 138.319V144.519H122.796ZM132.429 148.326C132.134 148.326 131.865 148.302 131.622 148.254C131.38 148.21 131.199 148.161 131.08 148.108L131.556 146.489C131.918 146.586 132.239 146.628 132.521 146.614C132.803 146.601 133.052 146.495 133.268 146.297C133.489 146.099 133.682 145.775 133.85 145.326L134.094 144.651L130.38 134.367H132.495L135.066 142.245H135.172L137.743 134.367H139.865L135.681 145.874C135.487 146.403 135.24 146.85 134.94 147.216C134.641 147.586 134.284 147.864 133.87 148.049C133.455 148.234 132.975 148.326 132.429 148.326ZM0.691479 158.519V152.271H2.37137V153.362H2.43645C2.55034 152.974 2.74151 152.681 3.00997 152.483C3.27842 152.282 3.58755 152.182 3.93736 152.182C4.02414 152.182 4.11769 152.187 4.21802 152.198C4.31835 152.209 4.40648 152.224 4.48241 152.243V153.781C4.40106 153.756 4.28852 153.734 4.1448 153.715C4.00109 153.696 3.86957 153.687 3.75026 153.687C3.49536 153.687 3.26758 153.743 3.06691 153.854C2.86896 153.962 2.71168 154.114 2.59508 154.309C2.48119 154.505 2.42424 154.73 2.42424 154.984V158.519H0.691479ZM8.50743 158.641C7.86476 158.641 7.31157 158.511 6.84788 158.251C6.38689 157.988 6.03166 157.616 5.78219 157.136C5.53271 156.654 5.40797 156.083 5.40797 155.424C5.40797 154.781 5.53271 154.217 5.78219 153.732C6.03166 153.246 6.38282 152.868 6.83567 152.597C7.29124 152.326 7.82544 152.19 8.43828 152.19C8.85045 152.19 9.23416 152.257 9.58939 152.389C9.94733 152.52 10.2592 152.716 10.5249 152.979C10.7934 153.242 11.0022 153.573 11.1513 153.972C11.3005 154.368 11.375 154.831 11.375 155.363V155.839H6.09945V154.765H9.74395C9.74395 154.515 9.68972 154.294 9.58125 154.102C9.47278 153.909 9.32229 153.759 9.12976 153.65C8.93994 153.539 8.71894 153.484 8.46675 153.484C8.20372 153.484 7.97051 153.545 7.76714 153.667C7.56647 153.786 7.40919 153.947 7.2953 154.151C7.18141 154.351 7.12311 154.575 7.1204 154.822V155.843C7.1204 156.152 7.17735 156.419 7.29124 156.644C7.40784 156.869 7.5719 157.043 7.78341 157.165C7.99492 157.287 8.24575 157.348 8.5359 157.348C8.72843 157.348 8.90469 157.321 9.06468 157.266C9.22467 157.212 9.36161 157.131 9.4755 157.022C9.58939 156.914 9.67616 156.781 9.73582 156.624L11.3384 156.729C11.2571 157.115 11.0903 157.451 10.8381 157.738C10.5886 158.023 10.266 158.245 9.87005 158.405C9.47685 158.563 9.02264 158.641 8.50743 158.641ZM15.8932 160.992C15.3319 160.992 14.8506 160.915 14.4493 160.76C14.0506 160.609 13.7334 160.401 13.4975 160.138C13.2615 159.875 13.1083 159.579 13.0378 159.251L14.6404 159.036C14.6892 159.16 14.7665 159.277 14.8723 159.386C14.978 159.494 15.1177 159.581 15.2912 159.646C15.4675 159.714 15.6817 159.748 15.9339 159.748C16.3108 159.748 16.6213 159.655 16.8654 159.471C17.1121 159.289 17.2355 158.984 17.2355 158.556V157.413H17.1623C17.0864 157.586 16.9725 157.75 16.8206 157.905C16.6688 158.06 16.4735 158.186 16.2349 158.283C15.9963 158.381 15.7115 158.43 15.3807 158.43C14.9116 158.43 14.4845 158.321 14.0995 158.104C13.7171 157.885 13.412 157.55 13.1843 157.1C12.9592 156.647 12.8467 156.075 12.8467 155.383C12.8467 154.675 12.9619 154.084 13.1924 153.61C13.4229 153.135 13.7293 152.78 14.1117 152.544C14.4967 152.308 14.9184 152.19 15.3767 152.19C15.7265 152.19 16.0193 152.25 16.2552 152.369C16.4912 152.486 16.681 152.632 16.8247 152.808C16.9711 152.982 17.0837 153.153 17.1623 153.321H17.2274V152.271H18.9479V158.58C18.9479 159.112 18.8178 159.556 18.5575 159.914C18.2971 160.272 17.9365 160.541 17.4755 160.72C17.0172 160.901 16.4898 160.992 15.8932 160.992ZM15.9298 157.128C16.2091 157.128 16.4451 157.059 16.6376 156.921C16.8328 156.78 16.982 156.579 17.085 156.319C17.1908 156.056 17.2436 155.741 17.2436 155.375C17.2436 155.009 17.1921 154.692 17.0891 154.423C16.986 154.152 16.8369 153.942 16.6417 153.793C16.4464 153.644 16.2091 153.569 15.9298 153.569C15.6451 153.569 15.4051 153.646 15.2099 153.801C15.0146 153.953 14.8669 154.164 14.7665 154.435C14.6662 154.707 14.616 155.02 14.616 155.375C14.616 155.736 14.6662 156.047 14.7665 156.311C14.8696 156.571 15.0174 156.773 15.2099 156.917C15.4051 157.058 15.6451 157.128 15.9298 157.128ZM24.906 155.859V152.271H26.6388V158.519H24.9752V157.384H24.9101C24.7691 157.75 24.5345 158.045 24.2064 158.267C23.881 158.489 23.4838 158.601 23.0146 158.601C22.5971 158.601 22.2296 158.506 21.9124 158.316C21.5951 158.126 21.347 157.856 21.168 157.506C20.9917 157.157 20.9022 156.738 20.8995 156.249V152.271H22.6323V155.94C22.635 156.309 22.734 156.601 22.9292 156.815C23.1245 157.029 23.3861 157.136 23.7143 157.136C23.9231 157.136 24.1183 157.089 24.3 156.994C24.4817 156.896 24.6281 156.753 24.7393 156.563C24.8532 156.373 24.9088 156.138 24.906 155.859ZM30.3303 150.189V158.519H28.5975V150.189H30.3303ZM34.0726 158.637C33.674 158.637 33.3188 158.568 33.0069 158.43C32.6951 158.289 32.4483 158.081 32.2666 157.807C32.0877 157.531 31.9982 157.186 31.9982 156.774C31.9982 156.427 32.0619 156.136 32.1894 155.9C32.3168 155.664 32.4903 155.474 32.71 155.33C32.9296 155.187 33.1791 155.078 33.4584 155.005C33.7404 154.932 34.036 154.88 34.3451 154.85C34.7085 154.812 35.0014 154.777 35.2237 154.745C35.4461 154.709 35.6074 154.658 35.7078 154.59C35.8081 154.522 35.8583 154.422 35.8583 154.289V154.265C35.8583 154.007 35.7769 153.808 35.6142 153.667C35.4542 153.526 35.2264 153.455 34.9309 153.455C34.619 153.455 34.3709 153.524 34.1865 153.663C34.0021 153.798 33.8801 153.969 33.8204 154.175L32.2178 154.045C32.2992 153.665 32.4592 153.337 32.6978 153.061C32.9364 152.781 33.2442 152.567 33.6211 152.418C34.0008 152.266 34.44 152.19 34.939 152.19C35.2861 152.19 35.6183 152.231 35.9355 152.312C36.2555 152.393 36.5389 152.52 36.7857 152.69C37.0351 152.861 37.2317 153.081 37.3754 153.349C37.5192 153.615 37.591 153.934 37.591 154.305V158.519H35.9477V157.653H35.8989C35.7986 157.848 35.6644 158.02 35.4962 158.169C35.3281 158.316 35.1261 158.431 34.8902 158.515C34.6543 158.596 34.3817 158.637 34.0726 158.637ZM34.5689 157.441C34.8237 157.441 35.0488 157.391 35.2441 157.291C35.4393 157.188 35.5925 157.049 35.7037 156.876C35.8149 156.702 35.8705 156.506 35.8705 156.286V155.623C35.8162 155.658 35.7417 155.691 35.6467 155.721C35.5545 155.748 35.4501 155.774 35.3335 155.798C35.2169 155.82 35.1003 155.84 34.9837 155.859C34.8671 155.875 34.7614 155.89 34.6665 155.904C34.4631 155.934 34.2855 155.981 34.1336 156.046C33.9818 156.111 33.8638 156.199 33.7798 156.311C33.6957 156.419 33.6537 156.555 33.6537 156.717C33.6537 156.953 33.7391 157.133 33.9099 157.258C34.0835 157.38 34.3031 157.441 34.5689 157.441ZM42.8312 152.271V153.573H39.0687V152.271H42.8312ZM39.9229 150.775H41.6557V156.599C41.6557 156.759 41.6801 156.884 41.7289 156.974C41.7777 157.06 41.8455 157.121 41.9323 157.157C42.0218 157.192 42.1248 157.209 42.2414 157.209C42.3228 157.209 42.4041 157.203 42.4855 157.189C42.5668 157.173 42.6292 157.161 42.6726 157.152L42.9451 158.442C42.8583 158.469 42.7363 158.5 42.579 158.535C42.4217 158.573 42.2306 158.596 42.0055 158.605C41.5879 158.621 41.2218 158.565 40.9073 158.438C40.5954 158.31 40.3527 158.112 40.1792 157.844C40.0056 157.575 39.9202 157.237 39.9229 156.827V150.775ZM47.2884 158.641C46.6566 158.641 46.1102 158.507 45.6492 158.239C45.1909 157.967 44.837 157.59 44.5876 157.108C44.3381 156.622 44.2134 156.06 44.2134 155.42C44.2134 154.774 44.3381 154.21 44.5876 153.728C44.837 153.242 45.1909 152.865 45.6492 152.597C46.1102 152.326 46.6566 152.19 47.2884 152.19C47.9202 152.19 48.4653 152.326 48.9235 152.597C49.3845 152.865 49.7398 153.242 49.9892 153.728C50.2387 154.21 50.3634 154.774 50.3634 155.42C50.3634 156.06 50.2387 156.622 49.9892 157.108C49.7398 157.59 49.3845 157.967 48.9235 158.239C48.4653 158.507 47.9202 158.641 47.2884 158.641ZM47.2965 157.299C47.584 157.299 47.824 157.218 48.0165 157.055C48.209 156.889 48.3541 156.664 48.4517 156.38C48.552 156.095 48.6022 155.771 48.6022 155.408C48.6022 155.044 48.552 154.72 48.4517 154.435C48.3541 154.151 48.209 153.926 48.0165 153.76C47.824 153.595 47.584 153.512 47.2965 153.512C47.0064 153.512 46.7623 153.595 46.5644 153.76C46.3691 153.926 46.2214 154.151 46.121 154.435C46.0234 154.72 45.9746 155.044 45.9746 155.408C45.9746 155.771 46.0234 156.095 46.121 156.38C46.2214 156.664 46.3691 156.889 46.5644 157.055C46.7623 157.218 47.0064 157.299 47.2965 157.299ZM52.0629 158.519V152.271H53.7427V153.362H53.8078C53.9217 152.974 54.1129 152.681 54.3813 152.483C54.6498 152.282 54.9589 152.182 55.3087 152.182C55.3955 152.182 55.4891 152.187 55.5894 152.198C55.6897 152.209 55.7779 152.224 55.8538 152.243V153.781C55.7724 153.756 55.6599 153.734 55.5162 153.715C55.3725 153.696 55.2409 153.687 55.1216 153.687C54.8667 153.687 54.639 153.743 54.4383 153.854C54.2403 153.962 54.0831 154.114 53.9665 154.309C53.8526 154.505 53.7956 154.73 53.7956 154.984V158.519H52.0629ZM58.5823 160.862C58.3626 160.862 58.1565 160.844 57.964 160.809C57.7742 160.777 57.6169 160.735 57.4922 160.683L57.8827 159.39C58.086 159.452 58.2691 159.486 58.4318 159.491C58.5972 159.497 58.7396 159.459 58.8589 159.377C58.9809 159.296 59.0799 159.158 59.1558 158.963L59.2575 158.698L57.0163 152.271H58.8385L60.132 156.86H60.1971L61.5028 152.271H63.3372L60.9089 159.194C60.7923 159.531 60.6337 159.823 60.433 160.073C60.2351 160.325 59.9842 160.519 59.6805 160.655C59.3768 160.793 59.0107 160.862 58.5823 160.862ZM70.8432 158.641C70.2033 158.641 69.6528 158.506 69.1918 158.234C68.7335 157.961 68.381 157.581 68.1342 157.096C67.8902 156.61 67.7682 156.052 67.7682 155.42C67.7682 154.78 67.8915 154.218 68.1383 153.736C68.3878 153.25 68.7417 152.872 69.1999 152.601C69.6582 152.327 70.2033 152.19 70.8351 152.19C71.3801 152.19 71.8574 152.289 72.2668 152.487C72.6763 152.685 73.0004 152.963 73.239 153.321C73.4776 153.679 73.6091 154.099 73.6335 154.582H71.9984C71.9523 154.27 71.8303 154.019 71.6323 153.829C71.4371 153.637 71.1808 153.541 70.8635 153.541C70.5951 153.541 70.3605 153.614 70.1599 153.76C69.9619 153.904 69.8073 154.114 69.6962 154.391C69.585 154.667 69.5294 155.002 69.5294 155.395C69.5294 155.794 69.5836 156.133 69.6921 156.412C69.8033 156.691 69.9592 156.904 70.1599 157.051C70.3605 157.197 70.5951 157.27 70.8635 157.27C71.0615 157.27 71.2391 157.23 71.3964 157.148C71.5564 157.067 71.6879 156.949 71.7909 156.795C71.8967 156.637 71.9658 156.449 71.9984 156.229H73.6335C73.6064 156.706 73.4763 157.127 73.243 157.49C73.0126 157.851 72.6939 158.133 72.2872 158.336C71.8804 158.54 71.3991 158.641 70.8432 158.641ZM78.1385 158.641C77.5067 158.641 76.9603 158.507 76.4993 158.239C76.041 157.967 75.6872 157.59 75.4377 157.108C75.1882 156.622 75.0635 156.06 75.0635 155.42C75.0635 154.774 75.1882 154.21 75.4377 153.728C75.6872 153.242 76.041 152.865 76.4993 152.597C76.9603 152.326 77.5067 152.19 78.1385 152.19C78.7703 152.19 79.3154 152.326 79.7737 152.597C80.2346 152.865 80.5899 153.242 80.8393 153.728C81.0888 154.21 81.2136 154.774 81.2136 155.42C81.2136 156.06 81.0888 156.622 80.8393 157.108C80.5899 157.59 80.2346 157.967 79.7737 158.239C79.3154 158.507 78.7703 158.641 78.1385 158.641ZM78.1466 157.299C78.4341 157.299 78.6741 157.218 78.8666 157.055C79.0591 156.889 79.2042 156.664 79.3018 156.38C79.4022 156.095 79.4523 155.771 79.4523 155.408C79.4523 155.044 79.4022 154.72 79.3018 154.435C79.2042 154.151 79.0591 153.926 78.8666 153.76C78.6741 153.595 78.4341 153.512 78.1466 153.512C77.8565 153.512 77.6124 153.595 77.4145 153.76C77.2193 153.926 77.0715 154.151 76.9711 154.435C76.8735 154.72 76.8247 155.044 76.8247 155.408C76.8247 155.771 76.8735 156.095 76.9711 156.38C77.0715 156.664 77.2193 156.889 77.4145 157.055C77.6124 157.218 77.8565 157.299 78.1466 157.299ZM82.913 158.519V152.271H84.5644V153.374H84.6376C84.7678 153.008 84.9847 152.719 85.2884 152.507C85.5921 152.296 85.9555 152.19 86.3785 152.19C86.8069 152.19 87.1717 152.297 87.4727 152.511C87.7737 152.723 87.9743 153.01 88.0747 153.374H88.1397C88.2672 153.016 88.4977 152.73 88.8312 152.516C89.1675 152.299 89.5647 152.19 90.023 152.19C90.606 152.19 91.0792 152.376 91.4426 152.747C91.8086 153.116 91.9917 153.639 91.9917 154.317V158.519H90.263V154.659C90.263 154.312 90.1708 154.052 89.9864 153.878C89.802 153.705 89.5715 153.618 89.2949 153.618C88.9804 153.618 88.735 153.718 88.5587 153.919C88.3824 154.117 88.2943 154.378 88.2943 154.704V158.519H86.6144V154.622C86.6144 154.316 86.5263 154.072 86.35 153.89C86.1765 153.709 85.9473 153.618 85.6626 153.618C85.4701 153.618 85.2965 153.667 85.142 153.764C84.9901 153.859 84.8695 153.993 84.78 154.167C84.6905 154.338 84.6457 154.538 84.6457 154.769V158.519H82.913ZM93.9331 158.519V152.271H95.5845V153.374H95.6577C95.7879 153.008 96.0048 152.719 96.3085 152.507C96.6123 152.296 96.9756 152.19 97.3986 152.19C97.8271 152.19 98.1918 152.297 98.4928 152.511C98.7938 152.723 98.9945 153.01 99.0948 153.374H99.1599C99.2873 153.016 99.5178 152.73 99.8514 152.516C100.188 152.299 100.585 152.19 101.043 152.19C101.626 152.19 102.099 152.376 102.463 152.747C102.829 153.116 103.012 153.639 103.012 154.317V158.519H101.283V154.659C101.283 154.312 101.191 154.052 101.007 153.878C100.822 153.705 100.592 153.618 100.315 153.618C100 153.618 99.7551 153.718 99.5788 153.919C99.4026 154.117 99.3144 154.378 99.3144 154.704V158.519H97.6346V154.622C97.6346 154.316 97.5464 154.072 97.3702 153.89C97.1966 153.709 96.9675 153.618 96.6828 153.618C96.4902 153.618 96.3167 153.667 96.1621 153.764C96.0103 153.859 95.8896 153.993 95.8001 154.167C95.7106 154.338 95.6659 154.538 95.6659 154.769V158.519H93.9331ZM104.953 158.519V152.271H106.686V158.519H104.953ZM105.824 151.466C105.566 151.466 105.345 151.381 105.161 151.21C104.979 151.036 104.888 150.829 104.888 150.587C104.888 150.349 104.979 150.144 105.161 149.973C105.345 149.8 105.566 149.713 105.824 149.713C106.081 149.713 106.301 149.8 106.483 149.973C106.667 150.144 106.759 150.349 106.759 150.587C106.759 150.829 106.667 151.036 106.483 151.21C106.301 151.381 106.081 151.466 105.824 151.466ZM113.845 154.053L112.259 154.151C112.232 154.015 112.173 153.893 112.084 153.785C111.994 153.673 111.876 153.585 111.73 153.52C111.586 153.452 111.414 153.418 111.213 153.418C110.945 153.418 110.718 153.475 110.534 153.589C110.35 153.701 110.258 153.85 110.258 154.037C110.258 154.186 110.317 154.312 110.436 154.415C110.556 154.518 110.761 154.601 111.051 154.663L112.181 154.891C112.789 155.016 113.242 155.216 113.54 155.493C113.838 155.77 113.987 156.133 113.987 156.583C113.987 156.992 113.867 157.352 113.625 157.661C113.387 157.97 113.059 158.211 112.641 158.385C112.226 158.556 111.748 158.641 111.205 158.641C110.378 158.641 109.719 158.469 109.228 158.125C108.74 157.778 108.454 157.306 108.37 156.709L110.074 156.62C110.126 156.872 110.251 157.064 110.449 157.197C110.647 157.327 110.9 157.392 111.209 157.392C111.513 157.392 111.757 157.334 111.941 157.218C112.129 157.098 112.223 156.945 112.226 156.758C112.223 156.601 112.157 156.472 112.027 156.372C111.897 156.268 111.696 156.19 111.425 156.136L110.343 155.92C109.733 155.798 109.279 155.586 108.98 155.285C108.685 154.984 108.537 154.601 108.537 154.134C108.537 153.733 108.645 153.387 108.862 153.097C109.082 152.807 109.39 152.583 109.786 152.426C110.184 152.269 110.651 152.19 111.185 152.19C111.974 152.19 112.595 152.357 113.048 152.69C113.503 153.024 113.769 153.478 113.845 154.053ZM120.85 154.053L119.263 154.151C119.236 154.015 119.178 153.893 119.088 153.785C118.999 153.673 118.881 153.585 118.734 153.52C118.591 153.452 118.419 153.418 118.218 153.418C117.949 153.418 117.723 153.475 117.539 153.589C117.354 153.701 117.262 153.85 117.262 154.037C117.262 154.186 117.322 154.312 117.441 154.415C117.56 154.518 117.765 154.601 118.055 154.663L119.186 154.891C119.793 155.016 120.246 155.216 120.544 155.493C120.843 155.77 120.992 156.133 120.992 156.583C120.992 156.992 120.871 157.352 120.63 157.661C120.391 157.97 120.063 158.211 119.646 158.385C119.231 158.556 118.752 158.641 118.21 158.641C117.383 158.641 116.724 158.469 116.233 158.125C115.745 157.778 115.459 157.306 115.375 156.709L117.079 156.62C117.13 156.872 117.255 157.064 117.453 157.197C117.651 157.327 117.905 157.392 118.214 157.392C118.517 157.392 118.762 157.334 118.946 157.218C119.133 157.098 119.228 156.945 119.231 156.758C119.228 156.601 119.162 156.472 119.031 156.372C118.901 156.268 118.701 156.19 118.429 156.136L117.347 155.92C116.737 155.798 116.283 155.586 115.985 155.285C115.689 154.984 115.541 154.601 115.541 154.134C115.541 153.733 115.65 153.387 115.867 153.097C116.086 152.807 116.394 152.583 116.79 152.426C117.189 152.269 117.655 152.19 118.189 152.19C118.978 152.19 119.599 152.357 120.052 152.69C120.508 153.024 120.774 153.478 120.85 154.053ZM122.656 158.519V152.271H124.388V158.519H122.656ZM123.526 151.466C123.269 151.466 123.048 151.381 122.863 151.21C122.681 151.036 122.591 150.829 122.591 150.587C122.591 150.349 122.681 150.144 122.863 149.973C123.048 149.8 123.269 149.713 123.526 149.713C123.784 149.713 124.003 149.8 124.185 149.973C124.369 150.144 124.462 150.349 124.462 150.587C124.462 150.829 124.369 151.036 124.185 151.21C124.003 151.381 123.784 151.466 123.526 151.466ZM129.172 158.641C128.54 158.641 127.994 158.507 127.533 158.239C127.075 157.967 126.721 157.59 126.471 157.108C126.222 156.622 126.097 156.06 126.097 155.42C126.097 154.774 126.222 154.21 126.471 153.728C126.721 153.242 127.075 152.865 127.533 152.597C127.994 152.326 128.54 152.19 129.172 152.19C129.804 152.19 130.349 152.326 130.807 152.597C131.268 152.865 131.623 153.242 131.873 153.728C132.122 154.21 132.247 154.774 132.247 155.42C132.247 156.06 132.122 156.622 131.873 157.108C131.623 157.59 131.268 157.967 130.807 158.239C130.349 158.507 129.804 158.641 129.172 158.641ZM129.18 157.299C129.468 157.299 129.708 157.218 129.9 157.055C130.093 156.889 130.238 156.664 130.335 156.38C130.436 156.095 130.486 155.771 130.486 155.408C130.486 155.044 130.436 154.72 130.335 154.435C130.238 154.151 130.093 153.926 129.9 153.76C129.708 153.595 129.468 153.512 129.18 153.512C128.89 153.512 128.646 153.595 128.448 153.76C128.253 153.926 128.105 154.151 128.005 154.435C127.907 154.72 127.858 155.044 127.858 155.408C127.858 155.771 127.907 156.095 128.005 156.38C128.105 156.664 128.253 156.889 128.448 157.055C128.646 157.218 128.89 157.299 129.18 157.299ZM135.679 154.907V158.519H133.947V152.271H135.598V153.374H135.671C135.809 153.01 136.041 152.723 136.367 152.511C136.692 152.297 137.087 152.19 137.55 152.19C137.984 152.19 138.363 152.285 138.685 152.475C139.008 152.665 139.259 152.936 139.438 153.288C139.617 153.638 139.706 154.056 139.706 154.541V158.519H137.973V154.85C137.976 154.468 137.878 154.17 137.681 153.955C137.483 153.738 137.21 153.63 136.863 153.63C136.63 153.63 136.424 153.68 136.245 153.781C136.068 153.881 135.93 154.027 135.83 154.22C135.732 154.41 135.682 154.639 135.679 154.907Z" fill="white"/>
</svg>
