<svg width="100" height="120" viewBox="0 0 181 117" fill="none" xmlns="http://www.w3.org/2000/svg">
<path fill-rule="evenodd" clip-rule="evenodd" d="M72.8958 58.4592C72.8958 69.2481 64.1497 77.9941 53.3609 77.9941C42.5715 77.9941 33.8252 69.2481 33.8252 58.4592C33.8252 47.6704 42.5715 38.9243 53.3609 38.9243C64.1497 38.9243 72.8958 47.6704 72.8958 58.4592Z" fill="#ED342B"/>
<path fill-rule="evenodd" clip-rule="evenodd" d="M53.3606 66.8271C48.991 56.9224 45.7871 47.6696 45.7871 47.6696H39.0886C39.0886 47.6696 43.1656 59.5456 50.7389 74.3973H55.9824C63.5556 59.5456 67.6324 47.6696 67.6324 47.6696H60.9338C60.9338 47.6696 57.7302 56.9224 53.3606 66.8271Z" fill="#FEFEFE"/>
<path fill-rule="evenodd" clip-rule="evenodd" d="M137.491 57.4406C133.704 57.4406 133.413 61.5184 133.413 61.5184H141.568C141.568 61.5184 141.277 57.4406 137.491 57.4406ZM146.519 65.5954H133.413C133.413 65.5954 133.704 69.9648 139.53 69.9648C142.442 69.9648 145.354 69.0901 145.354 69.0901L145.937 73.75C145.937 73.75 143.025 74.9157 138.947 74.9157C133.122 74.9157 127.879 72.0029 127.879 63.8481C127.879 57.4406 131.957 53.363 137.782 53.363C146.519 53.363 147.101 62.1005 146.519 65.5954ZM101.954 58.7137L102.856 53.9048C102.856 53.9048 95.892 51.7918 90.2321 55.7076V74.9431H96.243V59.3142C98.6473 57.5116 101.954 58.7137 101.954 58.7137ZM76.8985 57.4406C73.1126 57.4406 72.8215 61.5184 72.8215 61.5184H80.9761C80.9761 61.5184 80.6853 57.4406 76.8985 57.4406ZM85.9271 65.5954H72.8215C72.8215 65.5954 73.1126 69.9648 78.9374 69.9648C81.8493 69.9648 84.7621 69.0901 84.7621 69.0901L85.3449 73.75C85.3449 73.75 82.4321 74.9157 78.3546 74.9157C72.5297 74.9157 67.2869 72.0029 67.2869 63.8481C67.2869 57.4406 71.3647 53.363 77.1896 53.363C85.9271 53.363 86.5092 62.1005 85.9271 65.5954ZM116.623 67.5914C113.571 60.2656 112.045 53.3665 112.045 53.3665L105.942 53.3673C105.942 53.3673 108.994 65.1493 114.183 74.9121H119.063C124.252 65.1493 127.304 53.369 127.304 53.369H121.201C121.201 53.369 119.675 60.2656 116.623 67.5914Z" fill="#03435F"/>
</svg>
