<svg width="100" height="120" viewBox="0 0 181 117" fill="none" xmlns="http://www.w3.org/2000/svg">
<path fill-rule="evenodd" clip-rule="evenodd" d="M56.2796 59.0078C55.8564 58.4154 55.4756 57.4421 55.1794 56.8073C54.0791 54.5644 51.2438 51.0521 49.4664 49.5709C47.943 48.3014 45.6578 46.4817 43.8382 45.6777C43.8805 46.1855 44.1344 46.8626 44.3036 47.4127L51.8362 74.5808H61.527L72.3181 49.6132C72.7836 48.4707 75.6189 42.2076 75.8305 41.2343H66.1397L57.5068 63.4089C57.3799 63.6205 57.4222 63.5782 57.2953 63.7051C57.2529 63.155 56.4489 59.2617 56.2796 58.9655V59.0078ZM132.917 50.6289C132.917 51.5176 133.848 55.5378 134.145 56.7227C134.61 58.627 135.033 60.7429 135.456 62.7318H128.135L132.917 50.6289ZM114.34 74.7924C124.962 74.7924 123.1 75.5541 124.369 72.3803C124.708 71.4916 125.046 70.476 125.427 69.6719H137.022C137.107 70.5183 137.403 71.4493 137.572 72.338C137.826 73.4806 137.869 74.7501 138.546 74.7501C147.644 74.7501 146.713 75.3002 146.248 73.0151C146.078 72.211 145.994 71.7455 145.782 70.8992C145.444 69.4604 145.147 68.1062 144.851 66.7097L141.127 49.6979C140.535 46.8626 139.9 44.0273 139.223 41.192C136.853 41.192 130.675 40.6842 128.982 41.996C127.289 43.2656 125.977 47.2434 125.089 49.1901C124.327 50.9251 123.565 52.5755 122.803 54.3952C122.084 56.1725 121.365 57.7383 120.561 59.4733C118.783 63.2819 115.948 70.4337 114.255 73.7768C114.044 74.2423 113.62 74.7501 114.382 74.7501L114.34 74.7924ZM92.3768 51.306V52.3216C92.3768 56.1302 96.7779 59.3464 99.6555 60.5313C100.375 60.8275 101.094 61.166 101.856 61.5892C109.77 65.821 101.517 70.6029 92.0806 66.7943C91.5728 66.5827 90.4302 66.0326 89.8377 65.948C89.7531 67.0059 89.4146 68.4024 89.2453 69.5873L88.6528 73.269C88.6528 74.1576 95.9739 75.131 97.6666 75.131C102.575 75.131 106.215 74.8347 110.066 72.211C115.144 68.741 117.429 60.7852 109.473 56.0033C106.596 54.2682 101.898 52.9987 101.898 50.4596C101.898 47.0319 110.235 47.1165 114.678 49.444C114.805 48.0475 115.863 43.6464 115.863 42.123C113.324 40.8958 109.685 40.7688 106.68 40.7688C100.206 40.7688 92.3768 44.662 92.3768 51.306ZM73.7992 74.6231H82.9822L87.9334 45.5084C88.0604 44.789 88.145 44.1542 88.272 43.4771C88.3989 42.7154 88.6105 42.0807 88.6105 41.2766H79.4275C79.4275 42.4192 75.0688 67.1752 74.5187 70.4337L73.7992 74.6655V74.6231Z" fill="#2B2A29"/>
<path fill-rule="evenodd" clip-rule="evenodd" d="M43.8382 45.7199C45.6578 46.524 47.943 48.3436 49.4664 49.6132C51.2438 51.0943 54.0791 54.6067 55.1794 56.8496C55.5179 57.4843 55.8564 58.4576 56.2796 59.0501C56.2796 58.0345 54.1214 48.4706 53.7829 46.6933C52.6826 41.1073 52.3441 41.2766 44.3883 41.2766H34.3589V41.8267C34.4013 42.2499 34.6975 42.1652 36.3902 42.6307C38.3368 43.1809 42.4417 44.7466 43.8805 45.7199H43.8382Z" fill="#2B2A29"/>
<path fill-rule="evenodd" clip-rule="evenodd" d="M55.8988 58.6692C55.4756 58.0768 55.0947 57.1034 54.7985 56.4687C53.6982 54.2258 50.8629 50.7134 49.0856 49.2323C47.5621 47.9628 45.277 46.1431 43.4573 45.3391C43.4996 45.8469 43.7535 46.524 43.9228 47.0741L51.4554 74.2422H61.1462L71.9373 49.2746C72.4028 48.132 75.2381 41.869 75.4497 40.8957H65.7588L57.126 63.0703C56.999 63.2819 57.0413 63.2395 56.9144 63.3665C56.8721 62.8164 56.068 58.9231 55.8988 58.6269V58.6692ZM132.537 50.2903C132.537 51.1789 133.468 55.1991 133.764 56.384C134.229 58.2883 134.652 60.4042 135.076 62.3932H127.755L132.537 50.2903ZM113.959 74.4538C124.581 74.4538 122.719 75.2155 123.988 72.0417C124.327 71.153 124.665 70.1374 125.046 69.3333H136.641C136.726 70.1797 137.022 71.1107 137.192 71.9994C137.445 73.1419 137.488 74.4115 138.165 74.4115C147.263 74.4115 146.332 74.9616 145.867 72.6764C145.697 71.8724 145.613 71.4069 145.401 70.5605C145.063 69.1217 144.766 67.7676 144.47 66.3711L140.746 49.3593C140.154 46.524 139.519 43.6887 138.842 40.8534C136.472 40.8534 130.294 40.3455 128.601 41.6574C126.908 42.9269 125.596 46.9048 124.708 48.8514C123.946 50.5865 123.184 52.2369 122.423 54.0566C121.703 55.8339 120.984 57.3997 120.18 59.1347C118.402 62.9433 115.567 70.095 113.874 73.4382C113.663 73.9037 113.24 74.4115 114.001 74.4115L113.959 74.4538ZM91.996 50.9673V51.983C91.996 55.7916 96.397 59.0077 99.2747 60.1927C99.9941 60.4889 100.713 60.8274 101.475 61.2506C109.389 65.4824 101.137 70.2643 91.6997 66.4557C91.1919 66.2441 90.0493 65.694 89.4569 65.6093C89.3723 66.6673 89.0337 68.0638 88.8644 69.2487L88.272 72.9304C88.272 73.819 95.593 74.7923 97.2857 74.7923C102.195 74.7923 105.834 74.4961 109.685 71.8724C114.763 68.4023 117.048 60.4466 109.092 55.6646C106.215 53.9296 101.518 52.6601 101.518 50.121C101.518 46.6932 109.854 46.7779 114.298 49.1054C114.424 47.7089 115.482 43.3078 115.482 41.7843C112.943 40.5571 109.304 40.4302 106.299 40.4302C99.8248 40.4302 91.996 44.3234 91.996 50.9673ZM73.4184 74.2845H82.6014L87.5526 45.1698C87.6795 44.4504 87.7642 43.8156 87.8911 43.1385C88.0181 42.3768 88.2297 41.742 88.2297 40.938H79.0467C79.0467 42.0806 74.6879 66.8366 74.1378 70.095L73.4184 74.3268V74.2845Z" fill="url(#paint0_linear_48_115)"/>
<path fill-rule="evenodd" clip-rule="evenodd" d="M43.4996 45.3812C45.3193 46.1852 47.6044 48.0049 49.1279 49.2744C50.9052 50.7556 53.7405 54.268 54.8408 56.5108C55.1794 57.1456 55.5179 58.1189 55.9411 58.7113C55.9411 57.6957 53.7829 48.1319 53.4443 46.3545C52.3441 40.7685 52.0055 40.9378 44.0497 40.9378H34.0204V41.4879C34.0627 41.9111 34.3589 41.8265 36.0516 42.292C37.9983 42.8421 42.1031 44.4079 43.5419 45.3812H43.4996Z" fill="url(#paint1_linear_48_115)"/>
<defs>
<linearGradient id="paint0_linear_48_115" x1="95.3759" y1="40.3849" x2="95.3759" y2="75.2041" gradientUnits="userSpaceOnUse">
<stop stop-color="#66C3D0"/>
<stop offset="1" stop-color="#2179BD"/>
</linearGradient>
<linearGradient id="paint1_linear_48_115" x1="44.935" y1="40.7008" x2="44.935" y2="58.6521" gradientUnits="userSpaceOnUse">
<stop stop-color="#F6A511"/>
<stop offset="1" stop-color="#EF7F1A"/>
</linearGradient>
</defs>
</svg>
