<svg width="40" height="40" viewBox="0 0 61 61" fill="none" xmlns="http://www.w3.org/2000/svg">
<path d="M47.1111 0H13.6347C6.10445 0 0 6.10445 0 13.6347V47.1111C0 54.6413 6.10445 60.7458 13.6347 60.7458H47.1111C54.6413 60.7458 60.7458 54.6413 60.7458 47.1111V13.6347C60.7458 6.10445 54.6413 0 47.1111 0Z" fill="url(#paint0_linear_228_703)"/>
<path fill-rule="evenodd" clip-rule="evenodd" d="M39.1526 24.8855H32.5678V20.4957C32.5678 19.9136 32.7991 19.3553 33.2107 18.9436C33.6223 18.532 34.1806 18.3008 34.7628 18.3008H36.9577V12.8135H32.5678C30.8215 12.8135 29.1466 13.5072 27.9117 14.7421C26.6768 15.977 25.9831 17.6518 25.9831 19.3982V24.8855H21.5933V30.3728H25.9831V47.9321H32.5678V30.3728H36.9577L39.1526 24.8855Z" fill="white"/>
<defs>
<linearGradient id="paint0_linear_228_703" x1="57.5381" y1="57.371" x2="-21.1176" y2="-33.3811" gradientUnits="userSpaceOnUse">
<stop offset="0.045909" stop-color="#2A2A2A"/>
<stop offset="0.387458" stop-color="#393F4C"/>
</linearGradient>
</defs>
</svg>
