<svg width="40" height="40" viewBox="0 0 61 61" fill="none" xmlns="http://www.w3.org/2000/svg">
<path d="M47.1111 0H13.6347C6.10445 0 0 6.10445 0 13.6347V47.1111C0 54.6413 6.10445 60.7458 13.6347 60.7458H47.1111C54.6413 60.7458 60.7458 54.6413 60.7458 47.1111V13.6347C60.7458 6.10445 54.6413 0 47.1111 0Z" fill="url(#paint0_linear_228_704)"/>
<path fill-rule="evenodd" clip-rule="evenodd" d="M30.3728 13.8813C25.894 13.8813 25.3326 13.9006 23.5735 13.9803C21.8179 14.0607 20.6188 14.3397 19.5702 14.7471C18.4859 15.1684 17.5658 15.7325 16.6498 16.6492C15.7325 17.5658 15.1684 18.4859 14.7471 19.5702C14.3397 20.6195 14.06 21.8179 13.9803 23.5736C13.9006 25.3327 13.8813 25.8941 13.8813 30.3729C13.8813 34.8517 13.9006 35.4131 13.9803 37.1722C14.0607 38.9279 14.3397 40.1269 14.7471 41.1755C15.1684 42.2598 15.7325 43.1799 16.6492 44.0959C17.5658 45.0132 18.4859 45.5774 19.5702 45.9993C20.6195 46.4061 21.8179 46.6851 23.5735 46.7655C25.3326 46.8452 25.894 46.8644 30.3728 46.8644C34.8517 46.8644 35.4131 46.8452 37.1722 46.7655C38.9278 46.6851 40.1269 46.4061 41.1755 45.9986C42.2598 45.5774 43.1799 45.0132 44.0959 44.0966C45.0132 43.1799 45.5774 42.2598 45.9993 41.1755C46.4061 40.1262 46.685 38.9279 46.7654 37.1722C46.8452 35.4131 46.8644 34.8517 46.8644 30.3729C46.8644 25.8941 46.8452 25.3327 46.7654 23.5736C46.685 21.8179 46.406 20.6188 45.9986 19.5702C45.5773 18.4859 45.0132 17.5658 44.0965 16.6499C43.1799 15.7325 42.2598 15.1684 41.1755 14.7471C40.1262 14.3397 38.9278 14.06 37.1722 13.9803C35.4131 13.9006 34.8517 13.8813 30.3728 13.8813ZM30.3728 16.8526C34.7761 16.8526 35.2976 16.8698 37.0368 16.9488C38.6447 17.0223 39.5174 17.291 40.0994 17.517C40.869 17.816 41.4187 18.1733 41.9959 18.7505C42.5724 19.3277 42.9298 19.8774 43.2287 20.647C43.4554 21.2276 43.7234 22.101 43.797 23.7089C43.876 25.4474 43.8932 25.9696 43.8932 30.3729C43.8932 34.7761 43.876 35.2977 43.797 37.0368C43.7234 38.6448 43.4547 39.5174 43.2287 40.0994C42.9298 40.8691 42.5725 41.4188 41.9953 41.996C41.4181 42.5725 40.8683 42.9298 40.0987 43.2287C39.5181 43.4555 38.6447 43.7235 37.0368 43.797C35.2983 43.876 34.7761 43.8932 30.3728 43.8932C25.9689 43.8932 25.4474 43.876 23.7089 43.797C22.101 43.7235 21.2283 43.4548 20.6463 43.2287C19.8767 42.9298 19.327 42.5725 18.7497 41.9953C18.1732 41.4181 17.8159 40.8684 17.517 40.0988C17.2902 39.5181 17.0223 38.6448 16.9487 37.0368C16.8697 35.2983 16.8525 34.7761 16.8525 30.3729C16.8525 25.9696 16.8697 25.4481 16.9487 23.7089C17.0223 22.101 17.2909 21.2283 17.517 20.6463C17.8159 19.8767 18.1732 19.327 18.7504 18.7498C19.3276 18.1733 19.8774 17.816 20.647 17.517C21.2276 17.2903 22.101 17.0223 23.7089 16.9488C25.4474 16.8698 25.9696 16.8526 30.3728 16.8526ZM30.3728 21.9045C25.6954 21.9045 21.9044 25.6955 21.9044 30.3729C21.9044 35.0503 25.6954 38.8413 30.3728 38.8413C35.0503 38.8413 38.8412 35.0503 38.8412 30.3729C38.8412 25.6955 35.0503 21.9045 30.3728 21.9045ZM30.3728 35.8701C28.9149 35.8701 27.5167 35.2909 26.4858 34.26C25.4548 33.2291 24.8757 31.8308 24.8757 30.3729C24.8757 28.9149 25.4548 27.5167 26.4858 26.4858C27.5167 25.4549 28.9149 24.8757 30.3728 24.8757C31.8308 24.8757 33.229 25.4549 34.2599 26.4858C35.2909 27.5167 35.87 28.9149 35.87 30.3729C35.87 31.8308 35.2909 33.2291 34.2599 34.26C33.229 35.2909 31.8308 35.8701 30.3728 35.8701ZM41.1549 21.5698C41.1549 22.0947 40.9464 22.5981 40.5752 22.9692C40.2041 23.3403 39.7007 23.5488 39.1759 23.5488C38.651 23.5488 38.1477 23.3403 37.7765 22.9692C37.4054 22.5981 37.1969 22.0947 37.1969 21.5698C37.1969 21.045 37.4054 20.5416 37.7765 20.1705C38.1477 19.7993 38.651 19.5909 39.1759 19.5909C39.7007 19.5909 40.2041 19.7993 40.5752 20.1705C40.9464 20.5416 41.1549 21.045 41.1549 21.5698Z" fill="white"/>
<defs>
<linearGradient id="paint0_linear_228_704" x1="57.5381" y1="57.371" x2="-21.1176" y2="-33.3811" gradientUnits="userSpaceOnUse">
<stop offset="0.045909" stop-color="#2A2A2A"/>
<stop offset="0.387458" stop-color="#393F4C"/>
</linearGradient>
</defs>
</svg>
