<svg width="40" height="40" viewBox="0 0 61 61" fill="none" xmlns="http://www.w3.org/2000/svg">
<g clip-path="url(#clip0_228_702)">
<path d="M47.1111 0H13.6347C6.10445 0 0 6.10445 0 13.6347V47.1111C0 54.6413 6.10445 60.7458 13.6347 60.7458H47.1111C54.6413 60.7458 60.7458 54.6413 60.7458 47.1111V13.6347C60.7458 6.10445 54.6413 0 47.1111 0Z" fill="url(#paint0_linear_228_702)"/>
<path fill-rule="evenodd" clip-rule="evenodd" d="M24.7023 38.1055C23.2672 38.07 21.8787 37.5892 20.7289 36.7297C19.5791 35.8701 18.725 34.6745 18.2848 33.3081C19.2618 33.5245 20.2745 33.5245 21.2516 33.3081C20.3274 33.091 19.4581 32.6855 18.6978 32.1171C17.9375 31.5487 17.3026 30.8296 16.8329 30.0047C16.1458 28.9014 15.7948 27.6219 15.8229 26.3225C16.7661 26.8416 17.8188 27.1301 18.8949 27.1641C17.4508 26.1702 16.4361 24.6669 16.0544 22.9559C15.6685 21.2552 15.947 19.4713 16.8329 17.9691C18.5662 20.1062 20.7267 21.8576 23.176 23.1113C25.6254 24.365 28.3096 25.0932 31.0567 25.2494C31.0567 24.9758 31.0567 24.7444 30.9515 24.4919C30.7623 23.0597 31.0272 21.6043 31.7089 20.3307C32.3907 19.0571 33.4549 18.0296 34.7516 17.3929C36.0483 16.7561 37.5121 16.5423 38.9367 16.7816C40.3613 17.0209 41.675 17.7012 42.6925 18.7266C42.7367 18.7753 42.7934 18.8109 42.8565 18.8295C42.9196 18.8481 42.9866 18.8489 43.0502 18.8318C44.4615 18.5317 45.8173 18.0135 47.069 17.2958C46.5663 18.838 45.5485 20.1603 44.1864 21.0411C45.5145 20.8935 46.8127 20.5459 48.0369 20.0101L47.3426 21.0411C46.6127 21.9372 45.7713 22.7362 44.8387 23.4188C44.8039 23.4412 44.7758 23.4726 44.7573 23.5096C44.7388 23.5466 44.7306 23.5879 44.7335 23.6292C44.7739 24.6549 44.7317 25.6822 44.6072 26.7012C44.3392 28.8308 43.7356 30.9045 42.8187 32.8452C41.8899 34.8568 40.6311 36.6987 39.0944 38.2949C36.5326 40.9673 33.2262 42.8075 29.6049 43.5762C28.3388 43.8512 27.0496 44.0062 25.7544 44.0391C21.8655 44.1721 18.0258 43.1389 14.7288 41.0723L14.5605 40.9671C16.8937 41.2188 19.2528 40.8787 21.4199 39.9782C22.5951 39.5081 23.6996 38.8779 24.7023 38.1055Z" fill="white"/>
</g>
<defs>
<linearGradient id="paint0_linear_228_702" x1="57.5381" y1="57.371" x2="-21.1176" y2="-33.3811" gradientUnits="userSpaceOnUse">
<stop offset="0.045909" stop-color="#2A2A2A"/>
<stop offset="0.387458" stop-color="#393F4C"/>
</linearGradient>
<clipPath id="clip0_228_702">
<rect width="60.7458" height="60.7458" fill="white"/>
</clipPath>
</defs>
</svg>
